<?xml version="1.0" encoding="utf-8"?>

<!DOCTYPE svg PUBLIC "-//W3C//DTD SVG 1.1//EN" "http://www.w3.org/Graphics/SVG/1.1/DTD/svg11.dtd">
<svg version="1.1" id="Layer_1" xmlns="http://www.w3.org/2000/svg" xmlns:xlink="http://www.w3.org/1999/xlink" x="0px" y="0px"
	 viewBox="0 0 2622 890" enable-background="new 0 0 2622 890" xml:space="preserve">
<g id="_x36_Btd2P_1_">
	<g>
		<g>
			<path fill-rule="evenodd" clip-rule="evenodd" d="M1311,780.902c92.56,9.036,255.862,40.981,348.025,5.949
				c29.57-11.238,62.71-38.976,68.082-64.49c10.274-48.933-15.352-67.67-32.249-96.739c15.248-18.185,17.913-48.97,25.081-75.243
				c42.979,32.168,81.299,102.568,75.243,171.982c-2.075,23.697-20.165,75.757-32.249,89.571
				c-39.652,45.334-201.913,53.488-272.313,50.162c-63.307-2.99-125.008-2.831-179.62-5.062
				c-54.612,2.231-116.312,2.072-179.62,5.062c-70.4,3.326-232.661-4.828-272.313-50.162
				c-12.084-13.814-30.174-65.874-32.249-89.571c-6.057-69.414,32.263-139.814,75.243-171.982
				c7.168,26.273,9.832,57.058,25.081,75.243c-16.897,29.069-42.523,47.806-32.249,96.739c5.372,25.515,38.512,53.253,68.082,64.49
				C1055.138,821.883,1218.44,789.938,1311,780.902z"/>
			<path fill-rule="evenodd" clip-rule="evenodd" d="M1311,32.968c54.612-2.231,116.312-2.072,179.62-5.062
				c70.4-3.326,232.661,4.828,272.313,50.162c12.084,13.814,30.174,65.874,32.249,89.571
				c6.057,69.414-32.263,139.814-75.243,171.982c-7.167-26.273-9.832-57.057-25.081-75.243
				c16.897-29.069,42.523-47.806,32.249-96.739c-5.372-25.515-38.512-53.253-68.082-64.49
				c-92.163-35.032-255.465-3.087-348.025,5.949c-92.56-9.036-255.862-40.981-348.025-5.949
				c-29.57,11.238-62.71,38.976-68.082,64.49c-10.274,48.933,15.352,67.67,32.249,96.739c-15.248,18.185-17.913,48.97-25.081,75.243
				c-42.979-32.168-81.299-102.568-75.243-171.982c2.075-23.697,20.165-75.757,32.249-89.571
				C898.72,32.735,1060.98,24.58,1131.38,27.906C1194.688,30.896,1256.388,30.737,1311,32.968z"/>
			<path fill-rule="evenodd" clip-rule="evenodd" d="M2465.196,146.143c-22.137,5.328-41.411,13.526-60.914,21.497
				c-51.759-103.466-291.366-105.129-365.46-21.497c-19.818-13.621-43.161-23.718-53.744-46.574
				c-0.336-0.726,57.968-35.235,65.365-37.882c48.406-17.325,105.001-33.472,156.777-33.781c24.639-0.147,56.226,5.306,82.41,10.745
				c54.247,11.275,95.054,25.037,132.572,53.745C2439.674,105.762,2463.099,125.529,2465.196,146.143z"/>
			<path fill-rule="evenodd" clip-rule="evenodd" d="M156.804,146.143c22.137,5.328,41.411,13.526,60.914,21.497
				c51.759-103.466,291.366-105.129,365.46-21.497c19.818-13.621,43.161-23.718,53.744-46.574
				c0.336-0.726-57.968-35.235-65.365-37.882C523.151,44.362,466.556,28.215,414.78,27.906c-24.639-0.147-56.226,5.306-82.41,10.745
				c-54.247,11.275-95.054,25.037-132.572,53.745C182.326,105.762,158.901,125.529,156.804,146.143z"/>
			<path fill-rule="evenodd" clip-rule="evenodd" d="M2465.196,743.857c-22.137-5.328-41.411-13.526-60.914-21.497
				c-51.759,103.466-291.366,105.129-365.46,21.497c-19.818,13.621-43.161,23.718-53.744,46.574
				c-0.336,0.726,57.968,35.235,65.365,37.882c48.406,17.325,105.001,33.472,156.777,33.781c24.639,0.147,56.226-5.306,82.41-10.745
				c54.247-11.275,95.054-25.037,132.572-53.745C2439.674,784.238,2463.099,764.471,2465.196,743.857z"/>
			<path fill-rule="evenodd" clip-rule="evenodd" d="M156.804,743.857c22.137-5.328,41.411-13.526,60.914-21.497
				c51.759,103.466,291.366,105.129,365.46,21.497c19.818,13.621,43.161,23.718,53.744,46.574
				c0.336,0.726-57.968,35.235-65.365,37.882c-48.406,17.325-105.001,33.472-156.777,33.781
				c-24.639,0.147-56.226-5.306-82.41-10.745c-54.247-11.275-95.054-25.037-132.572-53.745
				C182.326,784.238,158.901,764.471,156.804,743.857z"/>
			<path fill-rule="evenodd" clip-rule="evenodd" d="M2497.445,221.385c-43.95,8.463-97.394,27.45-139.741,7.168
				c5.218-15.094,12.15-28.458,14.337-46.585c64.851-0.832,118.575-12.791,128.988-68.074
				c-3.981-11.547-19.723-11.333-35.833-10.745c-15.374-18.074-40.344-26.538-50.161-50.161
				c31.101-1.664,56.792-17.163,93.155-14.337c35.487,2.76,78.179,20.57,82.41,46.578c4.32,26.538-27.369,70.657-46.577,93.163
				C2528.414,196.673,2509.051,203.369,2497.445,221.385z"/>
			<path fill-rule="evenodd" clip-rule="evenodd" d="M124.555,221.385c43.95,8.463,97.394,27.45,139.741,7.168
				c-5.218-15.094-12.15-28.458-14.337-46.585c-64.851-0.832-118.575-12.791-128.988-68.074
				c3.981-11.547,19.723-11.333,35.833-10.745c15.373-18.074,40.344-26.538,50.161-50.161c-31.1-1.664-56.792-17.163-93.155-14.337
				c-35.487,2.76-78.179,20.57-82.41,46.578c-4.32,26.538,27.369,70.657,46.577,93.163
				C93.586,196.673,112.949,203.369,124.555,221.385z"/>
			<path fill-rule="evenodd" clip-rule="evenodd" d="M2497.445,668.615c-43.95-8.463-97.394-27.45-139.741-7.168
				c5.218,15.094,12.15,28.458,14.337,46.585c64.851,0.832,118.575,12.791,128.988,68.074
				c-3.981,11.547-19.723,11.333-35.833,10.745c-15.374,18.074-40.344,26.538-50.161,50.161
				c31.101,1.664,56.792,17.163,93.155,14.337c35.487-2.76,78.179-20.57,82.41-46.578c4.32-26.538-27.369-70.657-46.577-93.163
				C2528.414,693.327,2509.051,686.631,2497.445,668.615z"/>
			<path fill-rule="evenodd" clip-rule="evenodd" d="M124.555,668.615c43.95-8.463,97.394-27.45,139.741-7.168
				c-5.218,15.094-12.15,28.458-14.337,46.585c-64.851,0.832-118.575,12.791-128.988,68.074
				c3.981,11.547,19.723,11.333,35.833,10.745c15.373,18.074,40.344,26.538,50.161,50.161c-31.1,1.664-56.792,17.163-93.155,14.337
				c-35.487-2.76-78.179-20.57-82.41-46.578c-4.32-26.538,27.369-70.657,46.577-93.163
				C93.586,693.327,112.949,686.631,124.555,668.615z"/>
			<path fill-rule="evenodd" clip-rule="evenodd" d="M2131.977,357.534c-15.197,7.021-42.294-6.035-57.33,7.168
				c-13.851-30.696-19.827-59.324-35.826-85.987c-14.918-24.861-34.707-44.598-50.162-68.082
				c-42.891-29.327-105.438-56.219-179.149-42.994c-12.813-14.66-12.621-42.316-21.497-60.914
				c133.853-23.918,217.927,29.32,283.058,103.907C2101.833,245.878,2139.425,297.194,2131.977,357.534z"/>
			<path fill-rule="evenodd" clip-rule="evenodd" d="M490.023,357.534c15.197,7.021,42.294-6.035,57.33,7.168
				c13.85-30.696,19.827-59.324,35.826-85.987c14.918-24.861,34.707-44.598,50.162-68.082
				c42.891-29.327,105.438-56.219,179.149-42.994c12.813-14.66,12.621-42.316,21.497-60.914
				c-133.853-23.918-217.927,29.32-283.058,103.907C520.167,245.878,482.575,297.194,490.023,357.534z"/>
			<path fill-rule="evenodd" clip-rule="evenodd" d="M2131.977,532.466c-15.197-7.021-42.294,6.035-57.33-7.168
				c-13.851,30.696-19.827,59.324-35.826,85.987c-14.918,24.861-34.707,44.598-50.162,68.082
				c-42.891,29.327-105.438,56.219-179.149,42.994c-12.813,14.66-12.621,42.316-21.497,60.914
				c133.853,23.918,217.927-29.32,283.058-103.907C2101.833,644.122,2139.425,592.806,2131.977,532.466z"/>
			<path fill-rule="evenodd" clip-rule="evenodd" d="M490.023,532.466c15.197-7.021,42.294,6.035,57.33-7.168
				c13.85,30.696,19.827,59.324,35.826,85.987c14.918,24.861,34.707,44.598,50.162,68.082
				c42.891,29.327,105.438,56.219,179.149,42.994c12.813,14.66,12.621,42.316,21.497,60.914
				c-133.853,23.918-217.927-29.32-283.058-103.907C520.167,644.122,482.575,592.806,490.023,532.466z"/>
			<path fill-rule="evenodd" clip-rule="evenodd" d="M1623.192,146.143c-14.998,16.051-32.529,29.577-50.161,42.994
				c-18.207-10.958-62.467-17.751-78.819,0c21.872,50.978,63.011,82.697,125.404,93.155c-1.015,27.296,12.82,39.733,10.745,68.082
				c-28.79,5.843-65.469-7.764-89.578-21.497c-25-14.248-55.777-47.13-85.988-78.826c-12.673-13.299-67.037-60.436-64.498-85.995
				C1395.367,113.114,1592.651,99.307,1623.192,146.143z"/>
			<path fill-rule="evenodd" clip-rule="evenodd" d="M998.808,146.143c14.998,16.051,32.529,29.577,50.161,42.994
				c18.207-10.958,62.467-17.751,78.819,0c-21.872,50.978-63.011,82.697-125.404,93.155c1.015,27.296-12.82,39.733-10.745,68.082
				c28.79,5.843,65.469-7.764,89.578-21.497c25-14.248,55.777-47.13,85.988-78.826c12.673-13.299,67.037-60.436,64.498-85.995
				C1226.633,113.114,1029.349,99.307,998.808,146.143z"/>
			<path fill-rule="evenodd" clip-rule="evenodd" d="M1623.192,743.857c-14.998-16.051-32.529-29.577-50.161-42.994
				c-18.207,10.958-62.467,17.751-78.819,0c21.872-50.978,63.011-82.697,125.404-93.155c-1.015-27.296,12.82-39.733,10.745-68.082
				c-28.79-5.843-65.469,7.764-89.578,21.497c-25,14.248-55.777,47.13-85.988,78.826c-12.673,13.299-67.037,60.436-64.498,85.995
				C1395.367,776.886,1592.651,790.693,1623.192,743.857z"/>
			<path fill-rule="evenodd" clip-rule="evenodd" d="M998.808,743.857c14.998-16.051,32.529-29.577,50.161-42.994
				c18.207,10.958,62.467,17.751,78.819,0c-21.872-50.978-63.011-82.697-125.404-93.155c1.015-27.296-12.82-39.733-10.745-68.082
				c28.79-5.843,65.469,7.764,89.578,21.497c25,14.248,55.777,47.13,85.988,78.826c12.673,13.299,67.037,60.436,64.498,85.995
				C1226.633,776.886,1029.349,790.693,998.808,743.857z"/>
			<path fill-rule="evenodd" clip-rule="evenodd" d="M2372.041,153.311c-17.302,44.804-39.233,84.971-57.33,128.981
				c-25.14,0.066-44.635-5.519-53.746-21.497c13.659-53.216,40.411-93.353,60.914-139.732
				C2348.601,121.805,2354.445,143.434,2372.041,153.311z"/>
			<path fill-rule="evenodd" clip-rule="evenodd" d="M249.959,153.311c17.302,44.804,39.233,84.971,57.33,128.981
				c25.14,0.066,44.635-5.519,53.746-21.497c-13.659-53.216-40.41-93.353-60.914-139.732
				C273.399,121.805,267.555,143.434,249.959,153.311z"/>
			<path fill-rule="evenodd" clip-rule="evenodd" d="M2372.041,736.689c-17.302-44.804-39.233-84.971-57.33-128.981
				c-25.14-0.066-44.635,5.519-53.746,21.497c13.659,53.216,40.411,93.353,60.914,139.732
				C2348.601,768.195,2354.445,746.566,2372.041,736.689z"/>
			<path fill-rule="evenodd" clip-rule="evenodd" d="M249.959,736.689c17.302-44.804,39.233-84.971,57.33-128.981
				c25.14-0.066,44.635,5.519,53.746,21.497c-13.659,53.216-40.41,93.353-60.914,139.732
				C273.399,768.195,267.555,746.566,249.959,736.689z"/>
			<path fill-rule="evenodd" clip-rule="evenodd" d="M1687.69,142.559c7.624,13.865,13.836,29.151,17.913,46.578
				c-44.421,18.876-83.397,43.2-111.068,78.826c-18.252-11.613-37.444-22.276-46.585-42.994
				C1584.099,187.061,1624.208,153.126,1687.69,142.559z"/>
			<path fill-rule="evenodd" clip-rule="evenodd" d="M934.31,142.559c-7.624,13.865-13.836,29.151-17.913,46.578
				c44.421,18.876,83.397,43.2,111.068,78.826c18.252-11.613,37.444-22.276,46.585-42.994
				C1037.901,187.061,997.792,153.126,934.31,142.559z"/>
			<path fill-rule="evenodd" clip-rule="evenodd" d="M1687.69,747.441c7.624-13.865,13.836-29.151,17.913-46.578
				c-44.421-18.876-83.397-43.2-111.068-78.826c-18.252,11.613-37.444,22.276-46.585,42.994
				C1584.099,702.939,1624.208,736.874,1687.69,747.441z"/>
			<path fill-rule="evenodd" clip-rule="evenodd" d="M934.31,747.441c-7.624-13.865-13.836-29.151-17.913-46.578
				c44.421-18.876,83.397-43.2,111.068-78.826c18.252,11.613,37.444,22.276,46.585,42.994
				C1037.901,702.939,997.792,736.874,934.31,747.441z"/>
			<path fill-rule="evenodd" clip-rule="evenodd" d="M2275.294,156.888c-1.715,20.981-8.522,36.863-14.329,53.745
				c-21.371-1.067-39.144,1.464-53.745,7.168c3.201,91.787,167.036,87.915,207.815,32.249c22.497,4.577,42.051-8.847,57.33,0
				c-2.208,32.131-32.109,62.856-57.33,78.826c-19.039,12.048-56.292,29.386-82.411,32.241
				c-93.243,10.193-143.302-45.606-182.734-100.323c-13.438-18.655-33.581-49.889-32.242-60.906
				C2122.616,158.904,2232.072,151.044,2275.294,156.888z"/>
			<path fill-rule="evenodd" clip-rule="evenodd" d="M346.706,156.888c1.715,20.981,8.522,36.863,14.329,53.745
				c21.371-1.067,39.144,1.464,53.745,7.168c-3.201,91.787-167.036,87.915-207.815,32.249c-22.497,4.577-42.051-8.847-57.33,0
				c2.208,32.131,32.11,62.856,57.33,78.826c19.039,12.048,56.293,29.386,82.411,32.241
				c93.243,10.193,143.302-45.606,182.734-100.323c13.438-18.655,33.581-49.889,32.242-60.906
				C499.384,158.904,389.928,151.044,346.706,156.888z"/>
			<path fill-rule="evenodd" clip-rule="evenodd" d="M2275.294,733.112c-1.715-20.981-8.522-36.863-14.329-53.745
				c-21.371,1.067-39.144-1.464-53.745-7.168c3.201-91.787,167.036-87.915,207.815-32.249c22.497-4.577,42.051,8.847,57.33,0
				c-2.208-32.131-32.109-62.857-57.33-78.826c-19.039-12.048-56.292-29.386-82.411-32.241
				c-93.243-10.193-143.302,45.606-182.734,100.323c-13.438,18.655-33.581,49.889-32.242,60.906
				C2122.616,731.096,2232.072,738.956,2275.294,733.112z"/>
			<path fill-rule="evenodd" clip-rule="evenodd" d="M346.706,733.112c1.715-20.981,8.522-36.863,14.329-53.745
				c21.371,1.067,39.144-1.464,53.745-7.168c-3.201-91.787-167.036-87.915-207.815-32.249c-22.497-4.577-42.051,8.847-57.33,0
				c2.208-32.131,32.11-62.857,57.33-78.826c19.039-12.048,56.293-29.386,82.411-32.241
				c93.243-10.193,143.302,45.606,182.734,100.323c13.438,18.655,33.581,49.889,32.242,60.906
				C499.384,731.096,389.928,738.956,346.706,733.112z"/>
			<path fill-rule="evenodd" clip-rule="evenodd" d="M1347.444,445c-13.024-26.002-22.023-55.152-25.222-87.466
				c-6.461-65.278,15.587-119.12,39.417-175.566c2.384,0,4.776,0,7.168,0c34.177,8.824,46.872,39.115,64.49,64.498
				c15.521,5.975,22.292,20.701,32.241,32.249c-6.005,19.068-20.886,29.261-32.241,42.994c-16.86-9.413-21.629-30.925-39.41-39.417
				c-23.078,66.564-3.74,121.125,30.195,162.708c-33.935,41.583-53.273,96.144-30.195,162.708
				c17.781-8.492,22.549-30.004,39.41-39.417c11.355,13.733,26.236,23.926,32.241,42.994c-9.95,11.547-16.72,26.274-32.241,32.249
				c-17.618,25.383-30.314,55.674-64.49,64.498c-2.392,0-4.784,0-7.168,0c-23.83-56.446-45.879-110.288-39.417-175.566
				C1325.42,500.152,1334.42,471.002,1347.444,445z"/>
			<path fill-rule="evenodd" clip-rule="evenodd" d="M1274.556,445c13.024-26.002,22.023-55.152,25.222-87.466
				c6.461-65.278-15.587-119.12-39.417-175.566c-2.384,0-4.776,0-7.168,0c-34.177,8.824-46.872,39.115-64.49,64.498
				c-15.521,5.975-22.292,20.701-32.241,32.249c6.005,19.068,20.886,29.261,32.241,42.994c16.86-9.413,21.629-30.925,39.41-39.417
				c23.078,66.564,3.74,121.125-30.195,162.708c33.935,41.583,53.273,96.144,30.195,162.708
				c-17.781-8.492-22.549-30.004-39.41-39.417c-11.355,13.733-26.236,23.926-32.241,42.994c9.95,11.547,16.72,26.274,32.241,32.249
				c17.618,25.383,30.314,55.674,64.49,64.498c2.392,0,4.784,0,7.168,0c23.83-56.446,45.879-110.288,39.417-175.566
				C1296.58,500.152,1287.58,471.002,1274.556,445z"/>
			<path fill-rule="evenodd" clip-rule="evenodd" d="M1871.305,445c12.99-89.923,34.667-171.154,56.449-252.28
				c28.127,2.922,42.67,19.429,57.322,35.833c-30.851,61.914-51.15,134.384-61.856,216.447
				c10.707,82.063,31.005,154.533,61.856,216.447c-14.652,16.404-29.195,32.911-57.322,35.833
				C1905.972,616.154,1884.295,534.923,1871.305,445z"/>
			<path fill-rule="evenodd" clip-rule="evenodd" d="M750.695,445c-12.99-89.923-34.667-171.154-56.449-252.28
				c-28.127,2.922-42.67,19.429-57.322,35.833c30.851,61.914,51.15,134.384,61.856,216.447
				c-10.707,82.063-31.006,154.533-61.856,216.447c14.652,16.404,29.195,32.911,57.322,35.833
				C716.028,616.154,737.705,534.923,750.695,445z"/>
			<path fill-rule="evenodd" clip-rule="evenodd" d="M1664.289,445c-12.348-62.753-26.284-123.918-41.096-184.206
				c10.995-13.652,32.293-29.474,50.162-25.081c24.27,64.572,42.573,135.108,57.235,209.286
				c-14.662,74.178-32.965,144.714-57.235,209.286c-17.869,4.393-39.167-11.429-50.162-25.081
				C1638.005,568.918,1651.941,507.753,1664.289,445z"/>
			<path fill-rule="evenodd" clip-rule="evenodd" d="M957.711,445c12.348-62.753,26.284-123.918,41.096-184.206
				c-10.995-13.652-32.293-29.474-50.162-25.081C924.376,300.286,906.073,370.822,891.41,445
				c14.662,74.178,32.965,144.714,57.235,209.286c17.869,4.393,39.167-11.429,50.162-25.081
				C983.995,568.918,970.059,507.753,957.711,445z"/>
			<path fill-rule="evenodd" clip-rule="evenodd" d="M1472.707,285.876c16.654,16.794,40.425,26.464,50.161,50.161
				c-28.083,30.446-45.65,71.394-75.242,100.323c-28.408-5.027-33.22-33.654-50.162-50.161
				C1417.526,347.739,1447.472,319.162,1472.707,285.876z"/>
			<path fill-rule="evenodd" clip-rule="evenodd" d="M1149.293,285.876c-16.654,16.794-40.425,26.464-50.161,50.161
				c28.083,30.446,45.65,71.394,75.242,100.323c28.408-5.027,33.22-33.654,50.162-50.161
				C1204.474,347.739,1174.528,319.162,1149.293,285.876z"/>
			<path fill-rule="evenodd" clip-rule="evenodd" d="M1472.707,604.124c16.654-16.794,40.425-26.464,50.161-50.161
				c-28.083-30.446-45.65-71.394-75.242-100.323c-28.408,5.027-33.22,33.654-50.162,50.161
				C1417.526,542.261,1447.472,570.838,1472.707,604.124z"/>
			<path fill-rule="evenodd" clip-rule="evenodd" d="M1149.293,604.124c-16.654-16.794-40.425-26.464-50.161-50.161
				c28.083-30.446,45.65-71.394,75.242-100.323c28.408,5.027,33.22,33.654,50.162,50.161
				C1204.474,542.261,1174.528,570.838,1149.293,604.124z"/>
			<path fill-rule="evenodd" clip-rule="evenodd" d="M2257.381,379.038c-24.234,32.742-95.053,52.156-154.061,57.322
				c-48.896,4.283-103.665-0.765-150.485-7.161c-1.744-25.632,5.019-42.75,10.745-60.914
				c79.202,13.21,175.198,13.012,232.896-21.497C2212.909,336.957,2240.764,380.304,2257.381,379.038z"/>
			<path fill-rule="evenodd" clip-rule="evenodd" d="M364.619,379.038c24.234,32.742,95.053,52.156,154.061,57.322
				c48.896,4.283,103.665-0.765,150.485-7.161c1.744-25.632-5.019-42.75-10.745-60.914c-79.202,13.21-175.198,13.012-232.896-21.497
				C409.091,336.957,381.236,380.304,364.619,379.038z"/>
			<path fill-rule="evenodd" clip-rule="evenodd" d="M2257.381,510.962c-24.234-32.742-95.053-52.156-154.061-57.322
				c-48.896-4.283-103.665,0.765-150.485,7.161c-1.744,25.632,5.019,42.75,10.745,60.914
				c79.202-13.21,175.198-13.012,232.896,21.496C2212.909,553.043,2240.764,509.696,2257.381,510.962z"/>
			<path fill-rule="evenodd" clip-rule="evenodd" d="M364.619,510.962c24.234-32.742,95.053-52.156,154.061-57.322
				c48.896-4.283,103.665,0.765,150.485,7.161c1.744,25.632-5.019,42.75-10.745,60.914c-79.202-13.21-175.198-13.012-232.896,21.496
				C409.091,553.043,381.236,509.696,364.619,510.962z"/>
			<path fill-rule="evenodd" clip-rule="evenodd" d="M1758.067,445c-6.49-18.613-10.951-38.386-13.046-58.801
				c30.011-12.975,60.318-25.67,96.732-32.241c5.122,17.574,10.229,35.156,10.759,57.322c-7.109,13.202-27.656,12.952-32.249,28.665
				c0.174,1.715,0.387,3.4,0.639,5.055c-0.252,1.655-0.466,3.34-0.639,5.055c4.593,15.713,25.14,15.462,32.249,28.665
				c-0.53,22.166-5.637,39.748-10.759,57.322c-36.414-6.571-66.72-19.267-96.732-32.241
				C1747.116,483.386,1751.577,463.613,1758.067,445z"/>
			<path fill-rule="evenodd" clip-rule="evenodd" d="M863.933,445c6.49-18.613,10.951-38.386,13.046-58.801
				c-30.012-12.975-60.318-25.67-96.732-32.241c-5.122,17.574-10.229,35.156-10.759,57.322
				c7.109,13.202,27.656,12.952,32.249,28.665c-0.174,1.715-0.387,3.4-0.639,5.055c0.252,1.655,0.466,3.34,0.639,5.055
				c-4.592,15.713-25.14,15.462-32.249,28.665c0.53,22.166,5.637,39.748,10.759,57.322c36.414-6.571,66.72-19.267,96.732-32.241
				C874.884,483.386,870.423,463.613,863.933,445z"/>
			<path fill-rule="evenodd" clip-rule="evenodd" d="M2101.772,445c7.832-1.533,15.47-3.259,23.037-5.055
				c-0.905,1.676-1.823,3.362-2.754,5.055c0.931,1.694,1.849,3.379,2.754,5.055C2117.242,448.259,2109.604,446.533,2101.772,445z"/>
			<path fill-rule="evenodd" clip-rule="evenodd" d="M520.228,445c-7.832-1.533-15.47-3.259-23.037-5.055
				c0.905,1.676,1.823,3.362,2.754,5.055c-0.931,1.694-1.849,3.379-2.754,5.055C504.758,448.259,512.397,446.533,520.228,445z"/>
			<path fill-rule="evenodd" clip-rule="evenodd" d="M1509.643,445c-5.052-13.634-12.534-26.409-22.6-37.304
				c3.827-20.054,19.061-28.709,28.658-42.994c23.058,15.262,41.009,45.194,51.812,80.298
				c-10.803,35.104-28.754,65.036-51.812,80.298c-9.597-14.285-24.831-22.94-28.658-42.994
				C1497.109,471.409,1504.591,458.634,1509.643,445z"/>
			<path fill-rule="evenodd" clip-rule="evenodd" d="M1112.357,445c5.052-13.634,12.534-26.409,22.6-37.304
				c-3.827-20.054-19.061-28.709-28.658-42.994c-23.058,15.262-41.009,45.194-51.812,80.298
				c10.803,35.104,28.754,65.036,51.812,80.298c9.597-14.285,24.831-22.94,28.658-42.994
				C1124.891,471.409,1117.409,458.634,1112.357,445z"/>
		</g>
	</g>
</g>
</svg>
