<?xml version="1.0" encoding="UTF-8" standalone="no"?>
<!-- Created with Inkscape (http://www.inkscape.org/) -->

<svg
   xmlns:dc="http://purl.org/dc/elements/1.1/"
   xmlns:cc="http://creativecommons.org/ns#"
   xmlns:rdf="http://www.w3.org/1999/02/22-rdf-syntax-ns#"
   xmlns:svg="http://www.w3.org/2000/svg"
   xmlns="http://www.w3.org/2000/svg"
   xmlns:sodipodi="http://sodipodi.sourceforge.net/DTD/sodipodi-0.dtd"
   xmlns:inkscape="http://www.inkscape.org/namespaces/inkscape"
   version="1.1"
   id="svg11464"
   xml:space="preserve"
   width="800"
   height="800"
   viewBox="0 0 800 800"
   sodipodi:docname="celtic-knot-23-publicdomainvectors [Converted].svg"
   inkscape:version="0.92.4 (5da689c313, 2019-01-14)"><metadata
     id="metadata11470"><rdf:RDF><cc:Work
         rdf:about=""><dc:format>image/svg+xml</dc:format><dc:type
           rdf:resource="http://purl.org/dc/dcmitype/StillImage" /><dc:title></dc:title></cc:Work></rdf:RDF></metadata><defs
     id="defs11468"><clipPath
       clipPathUnits="userSpaceOnUse"
       id="clipPath11480"><path
         d="M 0,600 H 600 V 0 H 0 Z"
         id="path11478"
         inkscape:connector-curvature="0" /></clipPath></defs><sodipodi:namedview
     pagecolor="#ffffff"
     bordercolor="#666666"
     borderopacity="1"
     objecttolerance="10"
     gridtolerance="10"
     guidetolerance="10"
     inkscape:pageopacity="0"
     inkscape:pageshadow="2"
     inkscape:window-width="1920"
     inkscape:window-height="1018"
     id="namedview11466"
     showgrid="false"
     inkscape:zoom="0.94156015"
     inkscape:cx="406.77966"
     inkscape:cy="420.33898"
     inkscape:window-x="-8"
     inkscape:window-y="-8"
     inkscape:window-maximized="1"
     inkscape:current-layer="g11472" /><g
     id="g11472"
     inkscape:groupmode="layer"
     inkscape:label="celtic-knot-23-publicdomainvectors [Converted]"
     transform="matrix(1.3333333,0,0,-1.3333333,0,800)"><g
       id="g11474"><g
         id="g11476"
         clip-path="url(#clipPath11480)"><path
           d="m 594.808,444.959 c 0,0 -57.457,30.14 -125.015,-7.914 -5.487,-3.09 -10.547,-6.359 -15.227,-9.753 6.451,-3.994 11.034,-9.858 16.475,-14.861 2.941,1.969 6.056,3.897 9.37,5.763 49.61,27.945 88.282,12.056 88.282,12.056 0,0 -1.774,-11.279 -10.529,-26.032 3.646,-8.431 6.239,-20.464 5.481,-29.105 28.941,34.016 31.163,69.846 31.163,69.846 m 0,-208.464 c 0,0 -2.222,35.831 -31.163,69.848 0.758,-8.641 -1.835,-20.673 -5.481,-29.105 8.755,-14.752 10.529,-26.032 10.529,-26.032 0,0 -38.672,-15.89 -88.282,12.055 -3.314,1.865 -6.429,3.794 -9.37,5.764 -5.441,-5.004 -10.024,-10.867 -16.475,-14.862 4.68,-3.394 9.74,-6.661 15.227,-9.753 67.558,-38.054 125.015,-7.915 125.015,-7.915 M 572.37,340.728 c -2.598,3.79 -5.496,7.609 -8.725,11.405 0.3,-3.416 0.076,-7.362 -0.531,-11.405 0.607,-4.043 0.831,-7.989 0.531,-11.405 3.229,3.796 6.127,7.615 8.725,11.405 M 4.859,444.959 c 0,0 2.222,-35.83 31.163,-69.846 -0.759,8.641 1.835,20.674 5.481,29.105 -8.755,14.753 -10.53,26.032 -10.53,26.032 0,0 38.673,15.889 88.283,-12.056 3.313,-1.866 6.428,-3.794 9.369,-5.763 5.442,5.003 10.025,10.867 16.476,14.861 -4.681,3.394 -9.741,6.663 -15.228,9.753 -67.557,38.054 -125.014,7.914 -125.014,7.914 m 0,-208.464 c 0,0 57.457,-30.139 125.014,7.915 5.487,3.092 10.547,6.359 15.228,9.753 -6.451,3.995 -11.034,9.858 -16.476,14.862 -2.941,-1.97 -6.056,-3.899 -9.369,-5.764 -49.61,-27.945 -88.283,-12.055 -88.283,-12.055 0,0 1.775,11.28 10.53,26.032 -3.646,8.432 -6.24,20.464 -5.481,29.105 C 7.081,272.326 4.859,236.495 4.859,236.495 m 31.693,104.233 c -0.606,4.043 -0.83,7.989 -0.53,11.405 -3.23,-3.796 -6.128,-7.615 -8.726,-11.405 2.598,-3.79 5.496,-7.609 8.726,-11.405 -0.3,3.416 -0.076,7.362 0.53,11.405 m 307.73,73.364 c 0.861,-0.55 1.707,-1.103 2.539,-1.661 5.443,5.003 10.025,10.867 16.475,14.861 -4.68,3.394 -9.74,6.663 -15.228,9.753 -1.266,0.713 -2.527,1.402 -3.786,2.068 -1.259,-0.666 -2.52,-1.355 -3.787,-2.068 -5.487,-3.09 -10.548,-6.359 -15.227,-9.753 6.451,-3.994 11.034,-9.858 16.476,-14.861 0.831,0.558 1.678,1.111 2.538,1.661 m 0,-146.73 c -0.86,0.55 -1.707,1.105 -2.538,1.663 -5.442,-5.004 -10.025,-10.867 -16.476,-14.862 4.679,-3.394 9.74,-6.661 15.227,-9.753 1.267,-0.713 2.528,-1.402 3.787,-2.067 1.259,0.665 2.52,1.354 3.786,2.067 5.488,3.092 10.548,6.359 15.228,9.753 -6.45,3.995 -11.032,9.858 -16.475,14.862 -0.832,-0.558 -1.678,-1.113 -2.539,-1.663 m -88.898,146.73 c 0.861,-0.55 1.707,-1.103 2.539,-1.661 5.443,5.003 10.026,10.867 16.475,14.861 -4.68,3.394 -9.739,6.663 -15.227,9.753 -1.266,0.713 -2.528,1.402 -3.787,2.068 -1.259,-0.666 -2.52,-1.355 -3.786,-2.068 -5.488,-3.09 -10.548,-6.359 -15.227,-9.753 6.45,-3.994 11.032,-9.858 16.475,-14.861 0.831,0.558 1.678,1.111 2.538,1.661 m 0,-146.73 c -0.86,0.55 -1.707,1.105 -2.538,1.663 -5.443,-5.004 -10.025,-10.867 -16.475,-14.862 4.679,-3.394 9.739,-6.661 15.227,-9.753 1.266,-0.713 2.527,-1.402 3.786,-2.067 1.259,0.665 2.521,1.354 3.787,2.067 5.488,3.092 10.547,6.359 15.227,9.753 -6.449,3.995 -11.032,9.858 -16.475,14.862 -0.832,-0.558 -1.678,-1.113 -2.539,-1.663 m 285.26,96.262 c 0.335,5.839 0.014,11.712 -0.874,17.441 -4.658,-5.371 -11.777,-11.631 -20.836,-17.441 9.059,-5.811 16.178,-12.071 20.836,-17.443 0.888,5.73 1.209,11.603 0.874,17.443 m 0,-45.791 c 0.335,5.84 0.014,11.712 -0.874,17.442 -4.658,-5.372 -11.777,-11.631 -20.836,-17.442 9.059,-5.811 16.178,-12.07 20.836,-17.442 0.888,5.729 1.209,11.602 0.874,17.442 M 80.733,363.624 c -9.06,5.81 -16.178,12.07 -20.836,17.441 -0.889,-5.729 -1.21,-11.602 -0.875,-17.441 -0.335,-5.84 -0.014,-11.713 0.875,-17.443 4.658,5.372 11.776,11.632 20.836,17.443 m 0,-45.791 c -9.06,5.811 -16.178,12.07 -20.836,17.442 -0.889,-5.73 -1.21,-11.602 -0.875,-17.442 -0.335,-5.84 -0.014,-11.713 0.875,-17.442 4.658,5.372 11.776,11.631 20.836,17.442 m 185.478,22.895 c -4.42,5.969 -8.049,12.056 -10.827,17.984 -2.778,-5.928 -6.406,-12.015 -10.825,-17.984 4.419,-5.969 8.047,-12.056 10.825,-17.984 2.778,5.928 6.407,12.015 10.827,17.984 m 88.897,0 c -4.42,5.969 -8.048,12.056 -10.826,17.984 -2.778,-5.928 -6.407,-12.015 -10.827,-17.984 4.42,-5.969 8.049,-12.056 10.827,-17.984 2.778,5.928 6.406,12.015 10.826,17.984 m -218.195,0 c -5.651,7.631 -10.01,15.456 -12.95,22.896 9.331,23.606 32.947,51.097 66.772,63.987 31.503,-12.005 54.151,-36.674 64.649,-59.076 8.096,17.275 23.416,35.896 44.45,49.022 21.032,-13.126 36.353,-31.747 44.448,-49.022 10.498,22.402 33.147,47.071 64.649,59.076 33.826,-12.89 57.441,-40.381 66.772,-63.987 -2.939,-7.44 -7.299,-15.265 -12.949,-22.896 5.65,-7.631 10.01,-15.456 12.949,-22.895 -9.331,-23.606 -32.946,-51.099 -66.772,-63.989 -31.502,12.007 -54.151,36.677 -64.649,59.077 -8.095,-17.274 -23.416,-35.897 -44.448,-49.023 -21.034,13.126 -36.354,31.749 -44.45,49.023 -10.498,-22.4 -33.146,-47.07 -64.649,-59.077 -33.825,12.89 -57.441,40.383 -66.772,63.989 2.94,7.439 7.299,15.264 12.95,22.895 m 350.996,0 c 4.752,8.064 8.213,15.855 10.743,22.896 -7.928,22.06 -25,51.494 -62.27,73.593 -6.642,3.937 -13.194,7.186 -19.613,9.863 -2.7,-1.479 -5.316,-3.019 -7.838,-4.651 -2.523,1.632 -5.138,3.172 -7.836,4.651 -6.421,-2.677 -12.973,-5.926 -19.614,-9.863 -15.713,-9.317 -27.837,-19.938 -37.199,-30.761 -9.362,10.823 -21.485,21.444 -37.199,30.761 -2.43,1.441 -4.848,2.789 -7.249,4.05 -2.403,-1.261 -4.821,-2.609 -7.25,-4.05 -15.714,-9.317 -27.837,-19.938 -37.2,-30.761 -9.362,10.823 -21.485,21.444 -37.198,30.761 -6.642,3.937 -13.193,7.186 -19.614,9.863 -2.699,-1.479 -5.314,-3.019 -7.837,-4.651 -2.523,1.632 -5.137,3.172 -7.836,4.651 -6.421,-2.677 -12.973,-5.926 -19.614,-9.863 -37.271,-22.099 -54.342,-51.533 -62.27,-73.593 2.53,-7.041 5.99,-14.832 10.743,-22.896 -4.753,-8.064 -8.213,-15.855 -10.743,-22.895 7.928,-22.06 24.999,-51.497 62.27,-73.596 6.641,-3.934 13.193,-7.184 19.614,-9.862 2.699,1.479 5.313,3.021 7.836,4.65 2.523,-1.629 5.138,-3.171 7.837,-4.65 6.421,2.678 12.972,5.928 19.614,9.862 15.713,9.318 27.836,19.941 37.198,30.762 9.363,-10.821 21.486,-21.444 37.2,-30.762 2.429,-1.439 4.847,-2.788 7.25,-4.049 2.401,1.261 4.819,2.61 7.249,4.049 15.714,9.318 27.837,19.941 37.199,30.762 9.362,-10.821 21.486,-21.444 37.199,-30.762 6.641,-3.934 13.193,-7.184 19.614,-9.862 2.698,1.479 5.313,3.021 7.836,4.65 2.522,-1.629 5.138,-3.171 7.838,-4.65 6.419,2.678 12.971,5.928 19.613,9.862 37.27,22.099 54.342,51.536 62.27,73.596 -2.53,7.04 -5.991,14.831 -10.743,22.895 m -71.498,0 c -1.794,3.092 -3.534,6.372 -5.186,9.838 -0.816,1.617 -1.579,3.211 -2.294,4.78 -0.715,-1.569 -1.478,-3.163 -2.292,-4.78 -1.654,-3.466 -3.394,-6.746 -5.188,-9.838 1.794,-3.092 3.534,-6.372 5.188,-9.838 0.814,-1.617 1.577,-3.211 2.292,-4.78 0.715,1.569 1.478,3.163 2.294,4.78 1.652,3.466 3.392,6.746 5.186,9.838 m -41.351,0 c 6.628,8.44 10.951,16.455 13.732,22.896 -3.644,8.438 -9.931,19.575 -20.587,30.836 -0.695,0.659 -1.256,1.161 -1.631,1.485 4.972,5.568 11.596,10.423 16.911,14.923 7.492,-8.091 16.119,-19.431 23.154,-34.188 0.814,-1.616 1.577,-3.21 2.292,-4.78 0.715,1.57 1.478,3.164 2.294,4.78 7.035,14.757 15.66,26.097 23.152,34.188 5.316,-4.5 11.939,-9.355 16.91,-14.923 -0.374,-0.324 -0.934,-0.826 -1.63,-1.485 -10.656,-11.261 -16.943,-22.398 -20.587,-30.836 2.781,-6.441 7.104,-14.456 13.732,-22.896 -6.628,-8.44 -10.951,-16.455 -13.732,-22.895 3.644,-8.439 9.931,-19.576 20.587,-30.838 0.696,-0.657 1.256,-1.16 1.63,-1.483 -4.971,-5.57 -11.594,-10.424 -16.91,-14.924 -7.492,8.092 -16.117,19.433 -23.152,34.188 -0.816,1.617 -1.579,3.21 -2.294,4.78 -0.715,-1.57 -1.478,-3.163 -2.292,-4.78 -7.035,-14.755 -15.662,-26.096 -23.154,-34.188 -5.315,4.5 -11.939,9.354 -16.911,14.924 0.375,0.323 0.936,0.826 1.631,1.483 10.656,11.262 16.943,22.399 20.587,30.838 -2.781,6.44 -7.104,14.455 -13.732,22.895 m -176.844,0 c -1.795,3.092 -3.535,6.372 -5.188,9.838 -0.815,1.617 -1.577,3.211 -2.293,4.78 -0.715,-1.569 -1.478,-3.163 -2.292,-4.78 -1.653,-3.466 -3.394,-6.746 -5.188,-9.838 1.794,-3.092 3.535,-6.372 5.188,-9.838 0.814,-1.617 1.577,-3.211 2.292,-4.78 0.716,1.569 1.478,3.163 2.293,4.78 1.653,3.466 3.393,6.746 5.188,9.838 m -41.352,0 c 6.629,8.44 10.951,16.455 13.731,22.896 -3.643,8.438 -9.93,19.575 -20.586,30.836 -0.695,0.659 -1.255,1.161 -1.63,1.485 4.971,5.568 11.595,10.423 16.911,14.923 7.492,-8.091 16.117,-19.431 23.153,-34.188 0.814,-1.616 1.577,-3.21 2.292,-4.78 0.716,1.57 1.478,3.164 2.293,4.78 7.035,14.757 15.661,26.097 23.153,34.188 5.317,-4.5 11.94,-9.355 16.91,-14.923 -0.374,-0.324 -0.934,-0.826 -1.629,-1.485 -10.656,-11.261 -16.943,-22.398 -20.587,-30.836 2.78,-6.441 7.103,-14.456 13.731,-22.896 -6.628,-8.44 -10.951,-16.455 -13.731,-22.895 3.644,-8.439 9.931,-19.576 20.587,-30.838 0.695,-0.657 1.255,-1.16 1.629,-1.483 -4.97,-5.57 -11.593,-10.424 -16.91,-14.924 -7.492,8.092 -16.118,19.433 -23.153,34.188 -0.815,1.617 -1.577,3.21 -2.293,4.78 -0.715,-1.57 -1.478,-3.163 -2.292,-4.78 -7.036,-14.755 -15.661,-26.096 -23.153,-34.188 -5.316,4.5 -11.94,9.354 -16.911,14.924 0.375,0.323 0.935,0.826 1.63,1.483 10.656,11.262 16.943,22.399 20.586,30.838 -2.78,6.44 -7.102,14.455 -13.731,22.895 m 142.97,64.126 c 1.785,2.173 3.544,4.177 5.244,6.014 5.318,-4.5 11.942,-9.355 16.911,-14.923 -0.375,-0.324 -0.935,-0.826 -1.629,-1.485 -10.597,-11.199 -16.875,-22.274 -20.526,-30.696 -3.653,8.422 -9.93,19.497 -20.527,30.696 -0.694,0.659 -1.255,1.161 -1.63,1.485 4.97,5.568 11.594,10.423 16.911,14.923 1.701,-1.837 3.46,-3.841 5.246,-6.014 m 0,-128.252 c -1.786,-2.173 -3.545,-4.178 -5.246,-6.014 -5.317,4.5 -11.941,9.354 -16.911,14.924 0.375,0.323 0.936,0.826 1.63,1.483 10.597,11.2 16.874,22.276 20.527,30.697 3.651,-8.421 9.929,-19.497 20.526,-30.697 0.694,-0.657 1.254,-1.16 1.629,-1.483 -4.969,-5.57 -11.593,-10.424 -16.911,-14.924 -1.7,1.836 -3.459,3.841 -5.244,6.014 m -13.672,64.126 c 6.582,8.38 10.888,16.337 13.672,22.755 2.782,-6.418 7.088,-14.375 13.67,-22.755 -6.582,-8.38 -10.888,-16.337 -13.67,-22.755 -2.784,6.418 -7.09,14.375 -13.672,22.755 m 275.247,0 c 0.946,5.761 1.439,11.674 1.439,17.702 0,1.741 -0.041,3.473 -0.123,5.194 0.082,1.72 0.123,3.452 0.123,5.192 0,24.104 -7.863,46.369 -21.157,64.379 -8.082,0.055 -16.165,-1.036 -24.248,-2.643 15.573,-15.92 25.177,-37.704 25.177,-61.736 0,-1.743 -0.051,-3.475 -0.15,-5.192 0.099,-1.718 0.15,-3.451 0.15,-5.194 0,-6.063 -0.612,-11.983 -1.776,-17.702 1.164,-5.719 1.776,-11.639 1.776,-17.702 0,-1.743 -0.051,-3.475 -0.15,-5.193 0.099,-1.718 0.15,-3.45 0.15,-5.193 0,-24.033 -9.604,-45.817 -25.177,-61.737 8.083,-1.607 16.166,-2.697 24.248,-2.643 13.294,18.011 21.157,40.277 21.157,64.38 0,1.74 -0.041,3.472 -0.123,5.193 0.082,1.72 0.123,3.452 0.123,5.193 0,6.028 -0.493,11.941 -1.439,17.702 m -502.586,0 c -1.165,5.719 -1.777,11.639 -1.777,17.702 0,1.743 0.051,3.476 0.151,5.194 -0.1,1.717 -0.151,3.449 -0.151,5.192 0,24.032 9.605,45.816 25.177,61.736 -8.082,1.607 -16.166,2.698 -24.248,2.643 -13.295,-18.01 -21.156,-40.275 -21.156,-64.379 0,-1.74 0.041,-3.472 0.122,-5.192 -0.081,-1.721 -0.122,-3.453 -0.122,-5.194 0,-6.028 0.492,-11.941 1.438,-17.702 -0.946,-5.761 -1.438,-11.674 -1.438,-17.702 0,-1.741 0.041,-3.473 0.122,-5.193 -0.081,-1.721 -0.122,-3.453 -0.122,-5.193 0,-24.103 7.861,-46.369 21.156,-64.38 8.082,-0.054 16.166,1.036 24.248,2.643 -15.572,15.92 -25.177,37.704 -25.177,61.737 0,1.743 0.051,3.475 0.151,5.193 -0.1,1.718 -0.151,3.45 -0.151,5.193 0,6.063 0.612,11.983 1.777,17.702 m 241.011,112.745 c 7.98,2.372 16.434,3.645 25.186,3.645 6.617,0 13.062,-0.73 19.262,-2.111 6.2,1.381 12.645,2.111 19.262,2.111 16.599,0 32.124,-4.58 45.387,-12.544 13.263,7.964 28.79,12.544 45.387,12.544 13.406,0 26.107,-2.993 37.487,-8.339 9.689,4.257 17.51,6.11 26.871,7.414 -18.008,13.29 -40.26,21.153 -64.358,21.153 -16.205,0 -31.579,-3.552 -45.387,-9.919 -13.808,6.367 -29.182,9.919 -45.387,9.919 -6.575,0 -13.012,-0.585 -19.262,-1.706 -6.25,1.121 -12.687,1.706 -19.262,1.706 -8.67,0 -17.105,-1.017 -25.186,-2.939 -8.083,1.922 -16.517,2.939 -25.187,2.939 -6.575,0 -13.013,-0.585 -19.263,-1.706 -6.25,1.121 -12.687,1.706 -19.262,1.706 -16.205,0 -31.579,-3.552 -45.387,-9.919 -13.808,6.367 -29.182,9.919 -45.386,9.919 -24.098,0 -46.351,-7.863 -64.359,-21.153 9.362,-1.304 17.182,-3.157 26.872,-7.414 11.38,5.346 24.081,8.339 37.487,8.339 16.597,0 32.123,-4.58 45.386,-12.544 13.264,7.964 28.789,12.544 45.387,12.544 6.617,0 13.062,-0.73 19.262,-2.111 6.2,1.381 12.646,2.111 19.263,2.111 8.751,0 17.205,-1.273 25.187,-3.645 m 0,-225.49 c -7.982,-2.373 -16.436,-3.646 -25.187,-3.646 -6.617,0 -13.063,0.731 -19.263,2.112 -6.2,-1.381 -12.645,-2.112 -19.262,-2.112 -16.598,0 -32.123,4.579 -45.387,12.546 -13.263,-7.967 -28.789,-12.546 -45.386,-12.546 -13.406,0 -26.107,2.993 -37.487,8.339 -9.69,-4.257 -17.51,-6.109 -26.872,-7.413 18.008,-13.29 40.261,-21.153 64.359,-21.153 16.204,0 31.578,3.551 45.386,9.917 13.808,-6.366 29.182,-9.917 45.387,-9.917 6.575,0 13.012,0.584 19.262,1.705 6.25,-1.121 12.688,-1.705 19.263,-1.705 8.67,0 17.104,1.016 25.187,2.939 8.081,-1.923 16.516,-2.939 25.186,-2.939 6.575,0 13.012,0.584 19.262,1.705 6.25,-1.121 12.687,-1.705 19.262,-1.705 16.205,0 31.579,3.551 45.387,9.917 13.808,-6.366 29.182,-9.917 45.387,-9.917 24.098,0 46.35,7.863 64.358,21.153 -9.361,1.304 -17.182,3.156 -26.871,7.413 -11.38,-5.346 -24.081,-8.339 -37.487,-8.339 -16.597,0 -32.124,4.579 -45.387,12.546 -13.263,-7.967 -28.788,-12.546 -45.387,-12.546 -6.617,0 -13.062,0.731 -19.262,2.112 -6.2,-1.381 -12.645,-2.112 -19.262,-2.112 -8.752,0 -17.206,1.273 -25.186,3.646"
           style="fill:#231f20;fill-opacity:1;fill-rule:nonzero;stroke:none"
           id="path11482"
           inkscape:connector-curvature="0" /></g></g></g></svg>