<?xml version="1.0" encoding="UTF-8" standalone="no"?>
<!-- Created with Inkscape (http://www.inkscape.org/) -->

<svg
   xmlns:dc="http://purl.org/dc/elements/1.1/"
   xmlns:cc="http://creativecommons.org/ns#"
   xmlns:rdf="http://www.w3.org/1999/02/22-rdf-syntax-ns#"
   xmlns:svg="http://www.w3.org/2000/svg"
   xmlns="http://www.w3.org/2000/svg"
   xmlns:sodipodi="http://sodipodi.sourceforge.net/DTD/sodipodi-0.dtd"
   xmlns:inkscape="http://www.inkscape.org/namespaces/inkscape"
   version="1.1"
   id="svg3344"
   xml:space="preserve"
   width="800"
   height="800"
   viewBox="0 0 800 800"
   sodipodi:docname="decorative-knot-publicdomainvectors.org.svg"
   inkscape:version="0.92.4 (5da689c313, 2019-01-14)"><metadata
     id="metadata3350"><rdf:RDF><cc:Work
         rdf:about=""><dc:format>image/svg+xml</dc:format><dc:type
           rdf:resource="http://purl.org/dc/dcmitype/StillImage" /><dc:title></dc:title></cc:Work></rdf:RDF></metadata><defs
     id="defs3348"><clipPath
       clipPathUnits="userSpaceOnUse"
       id="clipPath3360"><path
         d="M 0,600 H 600 V 0 H 0 Z"
         id="path3358"
         inkscape:connector-curvature="0" /></clipPath></defs><sodipodi:namedview
     pagecolor="#ffffff"
     bordercolor="#666666"
     borderopacity="1"
     objecttolerance="10"
     gridtolerance="10"
     guidetolerance="10"
     inkscape:pageopacity="0"
     inkscape:pageshadow="2"
     inkscape:window-width="1920"
     inkscape:window-height="1018"
     id="namedview3346"
     showgrid="false"
     inkscape:zoom="0.8818838"
     inkscape:cx="459.32203"
     inkscape:cy="410.16949"
     inkscape:window-x="-8"
     inkscape:window-y="-8"
     inkscape:window-maximized="1"
     inkscape:current-layer="g3352" /><g
     id="g3352"
     inkscape:groupmode="layer"
     inkscape:label="decorative-knot-publicdomainvectors.org"
     transform="matrix(1.3333333,0,0,-1.3333333,0,800)"><g
       id="g3354"><g
         id="g3356"
         clip-path="url(#clipPath3360)"><path
           d="m 543.712,460.944 c 0,0 -65.59,34.405 -142.709,-9.034 -6.265,-3.529 -12.038,-7.26 -17.383,-11.134 7.365,-4.56 12.597,-11.253 18.81,-16.964 3.355,2.248 6.912,4.449 10.692,6.579 56.631,31.9 100.779,13.762 100.779,13.762 0,0 -2.026,-12.876 -12.021,-29.716 4.165,-9.624 7.123,-23.361 6.257,-33.224 33.037,38.83 35.575,79.731 35.575,79.731 m -497.993,0 c 0,0 2.537,-40.901 35.574,-79.731 -0.865,9.863 2.094,23.6 6.257,33.224 -9.994,16.84 -12.021,29.716 -12.021,29.716 0,0 44.147,18.138 100.778,-13.762 3.783,-2.13 7.339,-4.331 10.696,-6.579 6.213,5.711 11.442,12.404 18.807,16.964 -5.342,3.874 -11.12,7.605 -17.384,11.134 -77.116,43.439 -142.707,9.034 -142.707,9.034 M 543.712,155.861 c 0,0 -2.538,40.899 -35.575,79.729 0.866,-9.861 -2.092,-23.6 -6.257,-33.224 9.995,-16.839 12.021,-29.716 12.021,-29.716 0,0 -44.148,-18.137 -100.779,13.762 -3.78,2.132 -7.337,4.334 -10.692,6.579 -6.213,-5.711 -11.445,-12.405 -18.81,-16.962 5.345,-3.875 11.118,-7.607 17.383,-11.136 77.119,-43.439 142.709,-9.032 142.709,-9.032 m -497.993,0 c 0,0 65.591,-34.407 142.707,9.032 6.264,3.529 12.042,7.261 17.384,11.136 -7.365,4.557 -12.594,11.251 -18.807,16.962 -3.357,-2.245 -6.913,-4.447 -10.696,-6.579 C 119.676,154.513 75.529,172.65 75.529,172.65 c 0,0 2.027,12.877 12.021,29.716 -4.163,9.624 -7.122,23.363 -6.257,33.224 C 48.256,196.76 45.719,155.861 45.719,155.861 m 434.457,199.418 c 2.292,10.757 2.38,21.963 0.707,32.727 -18.281,-21.085 -69.791,-54.168 -130.435,-37.159 -0.044,-0.217 -4.628,-20.123 -5.519,-25.083 79.038,-14.796 129.69,25.44 135.247,29.515 m -370.922,0 c 5.558,-4.075 56.209,-44.311 135.248,-29.515 -0.892,4.96 -5.475,24.866 -5.519,25.083 -60.643,-17.009 -112.153,16.074 -130.435,37.159 -1.672,-10.764 -1.585,-21.97 0.706,-32.727 m 370.922,-93.757 c -5.557,4.079 -56.209,44.311 -135.247,29.52 0.891,-4.961 5.475,-24.867 5.519,-25.086 60.644,17.009 112.154,-16.072 130.435,-37.158 1.673,10.763 1.585,21.972 -0.707,32.724 m -370.922,0 c -2.291,-10.752 -2.378,-21.961 -0.706,-32.724 18.282,21.086 69.792,54.167 130.435,37.158 0.044,0.219 4.627,20.125 5.519,25.086 -79.039,14.791 -129.69,-25.441 -135.248,-29.52 m 185.463,202.843 c 3.14,3.19 6.401,6.28 9.865,9.382 -3.355,0.559 -6.646,0.997 -9.865,1.328 -3.223,-0.331 -6.514,-0.769 -9.868,-1.328 3.463,-3.102 6.726,-6.192 9.868,-9.382 m 0,-116.305 c 1.546,-0.978 3.123,-1.949 4.735,-2.903 5.849,-3.469 11.642,-6.469 17.349,-9.066 1.293,8.086 3.358,16.539 5.824,24.557 -3.644,1.793 -6.819,3.526 -10.58,5.754 -6.404,3.799 -12.161,7.783 -17.328,11.861 -5.172,-4.078 -10.925,-8.062 -17.334,-11.861 -3.756,-2.228 -6.934,-3.961 -10.577,-5.754 2.465,-8.018 4.53,-16.471 5.824,-24.557 5.706,2.597 11.497,5.597 17.349,9.066 1.611,0.954 3.19,1.925 4.738,2.903 m 0,-109.518 c 5.167,4.078 10.924,8.062 17.328,11.861 3.761,2.226 6.936,3.958 10.58,5.754 -2.466,8.019 -4.531,16.472 -5.824,24.558 -5.707,-2.598 -11.5,-5.601 -17.349,-9.069 -1.612,-0.955 -3.189,-1.921 -4.735,-2.904 -1.548,0.983 -3.127,1.949 -4.738,2.904 -5.852,3.468 -11.643,6.471 -17.349,9.069 -1.294,-8.086 -3.359,-16.539 -5.824,-24.558 3.643,-1.796 6.821,-3.528 10.577,-5.754 6.409,-3.799 12.162,-7.783 17.334,-11.861 m 0,-96.813 c 3.219,0.331 6.51,0.769 9.865,1.327 -3.464,3.103 -6.725,6.192 -9.865,9.382 -3.142,-3.19 -6.405,-6.279 -9.868,-9.382 3.354,-0.558 6.645,-0.996 9.868,-1.327 m 68.145,310.377 c -7.581,4.494 -15.059,8.202 -22.388,11.258 -9.009,-4.934 -17.188,-10.469 -24.321,-17.443 55.789,-13.578 91.608,-62.128 96.166,-94.443 7.987,1.528 22.49,7.485 24.124,9.068 -7.75,25.667 -26.618,63.714 -73.581,91.56 m -136.293,0 c -46.964,-27.846 -65.832,-65.893 -73.581,-91.56 1.633,-1.583 16.138,-7.54 24.123,-9.068 4.559,32.315 40.38,80.865 96.166,94.443 -7.132,6.974 -15.311,12.509 -24.319,17.443 -7.33,-3.056 -14.81,-6.764 -22.389,-11.258 M 362.862,164.698 c 46.963,27.845 65.831,65.893 73.581,91.561 -1.634,1.58 -16.137,7.537 -24.124,9.068 -4.558,-32.316 -40.377,-80.866 -96.166,-94.445 7.133,-6.973 15.312,-12.507 24.321,-17.442 7.329,3.055 14.807,6.763 22.388,11.258 m -136.293,0 c 7.579,-4.495 15.059,-8.203 22.389,-11.258 9.008,4.935 17.187,10.469 24.319,17.442 -55.786,13.579 -91.607,62.129 -96.166,94.445 -7.985,-1.531 -22.49,-7.488 -24.123,-9.068 7.749,-25.668 26.617,-63.716 73.581,-91.561 m 216.105,143.703 c 0.013,0.852 0.018,1.709 0.018,2.567 0,7.304 -0.429,14.271 -1.204,20.918 -7.521,-3.849 -16.006,-6.08 -24.038,-7.635 0.353,-4.252 0.543,-8.676 0.543,-13.283 0,-0.862 -0.006,-1.717 -0.018,-2.567 0.012,-0.85 0.018,-1.706 0.018,-2.568 0,-4.606 -0.19,-9.029 -0.543,-13.281 8.032,-1.553 16.517,-3.783 24.038,-7.637 0.775,6.651 1.204,13.618 1.204,20.918 0,0.862 -0.005,1.718 -0.018,2.568 m -295.919,0 c -0.01,-0.85 -0.016,-1.706 -0.016,-2.568 0,-7.3 0.428,-14.267 1.204,-20.918 7.521,3.854 16.006,6.084 24.036,7.637 -0.349,4.252 -0.542,8.675 -0.542,13.281 0,0.862 0.007,1.718 0.019,2.568 -0.012,0.85 -0.019,1.705 -0.019,2.567 0,4.607 0.193,9.031 0.542,13.283 -8.03,1.555 -16.515,3.786 -24.036,7.635 -0.776,-6.647 -1.204,-13.614 -1.204,-20.918 0,-0.858 0.006,-1.715 0.016,-2.567 m 171.624,0 c -0.013,0.852 -0.019,1.709 -0.019,2.567 0,8.175 0.953,23.576 0.953,23.576 0,0 1.351,21.678 14.832,48.456 8.032,16.846 17.878,29.791 26.43,39.028 6.068,-5.138 13.63,-10.679 19.303,-17.035 -0.429,-0.371 -1.068,-0.943 -1.858,-1.695 -24.867,-26.281 -28.898,-51.965 -28.898,-51.965 -2.14,-8.135 -3.865,-16.911 -5.346,-25.152 -0.458,-4.841 -0.719,-9.9 -0.719,-15.213 0,-0.862 0.006,-1.717 0.021,-2.567 -0.015,-0.85 -0.021,-1.706 -0.021,-2.568 0,-5.308 0.261,-10.371 0.719,-15.208 1.481,-8.244 3.206,-17.021 5.346,-25.156 0,0 4.031,-25.684 28.898,-51.962 0.79,-0.753 1.429,-1.324 1.858,-1.697 -5.673,-6.353 -13.235,-11.897 -19.303,-17.035 -8.552,9.238 -18.398,22.182 -26.43,39.028 -13.481,26.777 -14.832,48.456 -14.832,48.456 0,0 -0.953,15.401 -0.953,23.574 0,0.862 0.006,1.718 0.019,2.568 m -47.327,0 c 0.014,-0.85 0.02,-1.706 0.02,-2.568 0,-8.173 -0.954,-23.574 -0.954,-23.574 0,0 -1.353,-21.679 -14.832,-48.456 -8.032,-16.846 -17.877,-29.79 -26.429,-39.028 -6.069,5.138 -13.631,10.682 -19.306,17.035 0.43,0.373 1.07,0.944 1.863,1.697 24.866,26.278 28.893,51.962 28.893,51.962 2.141,8.135 3.866,16.912 5.348,25.156 0.458,4.837 0.72,9.9 0.72,15.208 0,0.862 -0.008,1.718 -0.02,2.568 0.012,0.85 0.02,1.705 0.02,2.567 0,5.313 -0.262,10.372 -0.72,15.213 -1.482,8.241 -3.207,17.017 -5.348,25.152 0,0 -4.027,25.684 -28.893,51.965 -0.793,0.752 -1.433,1.324 -1.863,1.695 5.675,6.356 13.237,11.897 19.306,17.035 8.552,-9.237 18.397,-22.182 26.429,-39.028 13.479,-26.778 14.832,-48.456 14.832,-48.456 0,0 0.954,-15.401 0.954,-23.576 0,-0.858 -0.006,-1.715 -0.02,-2.567 m 217.383,0 c 11.91,19.027 18.793,41.52 18.793,65.622 0,27.516 -8.974,52.932 -24.15,73.492 -9.224,0.061 -18.452,-1.183 -27.682,-3.018 17.78,-18.173 28.74,-43.04 28.74,-70.474 0,-25.068 -9.157,-47.992 -24.304,-65.622 15.147,-17.63 24.304,-40.553 24.304,-65.621 0,-27.432 -10.96,-52.299 -28.74,-70.472 9.23,-1.835 18.458,-3.081 27.682,-3.018 15.176,20.558 24.15,45.975 24.15,73.49 0,24.104 -6.883,46.595 -18.793,65.621 m -387.438,0 C 89.087,289.375 82.203,266.884 82.203,242.78 c 0,-27.515 8.974,-52.932 24.151,-73.49 9.225,-0.063 18.453,1.183 27.679,3.018 -17.776,18.173 -28.739,43.04 -28.739,70.472 0,25.068 9.156,47.991 24.304,65.621 -15.148,17.63 -24.304,40.554 -24.304,65.622 0,27.434 10.963,52.301 28.739,70.474 -9.226,1.835 -18.454,3.079 -27.679,3.018 -15.177,-20.56 -24.151,-45.976 -24.151,-73.492 0,-24.102 6.884,-46.595 18.794,-65.622 m 193.72,113.676 c 17.067,31.418 50.35,52.746 88.62,52.746 15.303,0 29.804,-3.418 42.795,-9.519 11.059,4.86 19.987,6.974 30.674,8.464 -20.558,15.17 -45.96,24.146 -73.469,24.146 -34.735,0 -66.129,-14.297 -88.62,-37.328 -22.495,23.031 -53.887,37.328 -88.625,37.328 -27.506,0 -52.909,-8.976 -73.466,-24.146 10.686,-1.49 19.613,-3.604 30.674,-8.464 12.991,6.101 27.49,9.519 42.792,9.519 38.271,0 71.556,-21.328 88.625,-52.746 m 0,-265.862 c 22.491,-23.029 53.885,-37.325 88.62,-37.325 27.509,0 52.911,8.974 73.469,24.145 -10.687,1.49 -19.615,3.605 -30.674,8.466 -12.991,-6.103 -27.492,-9.521 -42.795,-9.521 -38.27,0 -71.553,21.328 -88.62,52.747 -17.069,-31.419 -50.354,-52.747 -88.625,-52.747 -15.302,0 -29.801,3.418 -42.792,9.521 -11.061,-4.861 -19.988,-6.976 -30.674,-8.466 20.557,-15.171 45.96,-24.145 73.466,-24.145 34.738,0 66.13,14.296 88.625,37.325 m 0,169.753 c 3.416,-6.288 7.485,-12.174 12.113,-17.567 -4.628,-5.39 -8.697,-11.275 -12.113,-17.567 -3.418,6.292 -7.487,12.177 -12.114,17.567 4.627,5.393 8.696,11.279 12.114,17.567"
           style="fill:#110f0d;fill-opacity:1;fill-rule:nonzero;stroke:none"
           id="path3362"
           inkscape:connector-curvature="0" /></g></g></g></svg>