<?xml version="1.0" encoding="utf-8"?>

<!DOCTYPE svg PUBLIC "-//W3C//DTD SVG 1.1//EN" "http://www.w3.org/Graphics/SVG/1.1/DTD/svg11.dtd">
<svg version="1.1" id="Layer_1" xmlns="http://www.w3.org/2000/svg" xmlns:xlink="http://www.w3.org/1999/xlink" x="0px" y="0px"
	 viewBox="0 0 1698.138 1701.541" enable-background="new 0 0 1698.138 1701.541" xml:space="preserve">
<g>
	<path d="M1387.239,50.771c40.898,18.018,93.555,31.135,141.15,31.174c-3.749,0.066-7.489,0.295-11.218,0.579
		c19.206-0.624,46.542,2.991,98.174-10.313c-1.298,1.671-239.472,239.863-239.7,240.015c16.196-54.12,37.638-119.294,20.2-224.738
		C1393.747,75.081,1390.541,62.903,1387.239,50.771z"/>
	<path d="M100.349,85.907c69.065-59.678,191.911-39.808,214.227,51.617c30.778,114.628-103.509,173.424-157.001,111.958
		c-39.66-46.246,5.002-104.89,15.907-27.002c0.702,8.18-0.376,28.874,17.477,42.864c3.006,2.539,39.431,10.782,77.212-18.752
		c35.652-27.411,40.392-83.916,13.036-121.854C235.379,61.611,86.352,88.707,109.53,224.572
		c15.559,90.156,132.113,119.098,230.55,116.886c13.435-1.47,30.182,0.384,96.203-13.895
		c74.377-19.554,104.635-33.913,171.241-63.033c-4.136-7.117-8.239-16.032-8.24-16.034c-58.22,26.926-121.97,55.799-184.598,40.369
		c-94.443-21.598-93.978-150.163-12.65-160.669c37.267-5.877,73.192,18.802,79.336,59.665c2.759,43.797-33.923,60.993-51.165,51.246
		c2.352-1.163,5.07-0.879,7.565-1.519c17.94-4.124,31.49-30.285,16.735-53.339c-16.486-27.079-49.366-25.397-63.343-9.211
		c-15.54,21-7.776,65.615,39.409,74.911c23.843,4.442,43.284,2.269,48.041,1.174c54.338-8.634,112.903-32.932,114.543-34.298
		c0.302-4.118-1.258-19.81,6.285-40.969c31.051-78.291,126.787-79.123,160.887-31.25c0.985,1.536-0.422,0.321,60.376-24.579
		c75.268-30.717,199.159-75.29,282-64.532c81.222,5.219,141.583,39.278,151.346,48.538c-11.641-5.013-65.813-48.861-182.449-45.323
		c-11.391,1.747-93.808-1.293-263.969,80.952c-2.253,1.013-36.443,17.558-38.642,19.616c3.47,6.869,4.989,14.545,5.858,22.135
		c9.417-3.215,183.641-96.723,287.664-103.534c80.178-8.572,177.524,22.758,230.164,86.083
		c39.46,44.567,50.058,87.422,56.972,143.329c1.706,24.303-0.955,38.85-0.894,44.632c86.463-8.076,151.805,20.133,205.483,75.292
		c154.745,176.758-5.038,418.498-37.016,499.01c11.618,0.917,17.629,4.206,22.593,5.792c22.693-40.748,59.027-123.883,75.14-177.073
		c30.283-95.29,24.833-135.308,23.802-174.345c-9.255-87.749-42.9-129.316-46.359-137.253
		c20.511,23.166,50.339,104.625,50.063,147.353c16.025,140.296-88.102,336.934-88.953,349.387
		c70.228,61.386,22.771,171.093-71.238,167.659c-1-0.151-57.745,124.584-26.728,182.128c17.656,31.951,55.995,33.763,71.837,16.755
		c3.691-3.626,18.59-28.514-4.029-52.933c-27.759-26.704-58.466-8.262-62.383,10.212c-0.716,2.586-0.391,5.284-0.691,7.931
		c-15.74-22.339,19.703-61.254,56.947-50.921c56.012,16.025,65.032,73.904,42.467,107.929
		c-37.091,52.911-143.651,38.696-153.449-62.901c-8.988-63.883,43.304-161.844,43.824-164.708
		c-12.804-3.606-14.646-9.504-16.786-5.492c-91.087,185.012-74.592,293.879-75.429,320.601c0.107-1.89,0.198-3.77,0.411-5.634
		c0.094,7.48,7.691,114.47,71.004,161.665c30.719,23.047,73.072,26.074,105.007,17.715
		c97.571-27.082,104.151-193.316-26.764-187.138c-60.273,8.226-83.744,67.019-75.556,104.52c0.97,4.28,12.231,16.415,30.417,19.158
		c6.49,1.198,20.245,0.619,34.237,4.938c23.916,7.446,22.16,25.146-1.245,28.135c-88.162,7.176-99.957-144.407,4.389-172.826
		c77.149-20.977,146.561,36.772,146.225,108.188c0.16,9.615,5.03,50.512-26.261,97.011
		c-69.853,98.234-286.912,89.876-309.947-145.88c-21.612-170.009,95.724-364.979,99.475-374.321
		c-0.726-1.91-2.332-3.323-3.429-5.004c-19.088-26.859-18.761-58.503-19.27-62.56c-9.428-94.971,137.522-208.176,181.067-339.591
		c15.827-52.37,11.696-73.851,12.381-94.283c-0.31,3.216-0.462,6.442-0.61,9.673c1.4-35.404-10.798-83.595-40.283-124.46
		c-28.978-38.334-53.126-48.779-56.002-51.597c87.472,37.958,141.081,156.04,95.228,283.133
		c-54.411,151.533-206.846,246.288-156.736,360.492c0.432,0.036,0.889,0.086,1.361,0.152c3.716-7.405,64.115-111.244,64.212-111.521
		c-10.015,3.864-15.668,10.335-17.675,11.558c0.498-3.412,8.19-11.845,20.261-17.329c2.126-0.795,77.24-125.193,107.36-229.742
		c50.45-174.404-41.42-342.434-226.75-343.148c-7.468,0.107-14.977-0.178-22.369,1.062c-2.283,7.553-5.673,48.025-38.637,89.223
		c-22.346,29.303-64.982,57.629-118.476,65.492c-28.46,144.267,144.506,207.708,213.795,117.226
		c52.1-72.002-7.865-178.205-38.007-128.012c-7.966,14.248-1.583,27.102-18.051,42.483c-28.967,27.167-75.625-13.029-38.459-60.747
		c24.652-27.663,68.773-23.443,96.025,3.5c25.9,27.671,36.953,84.391,15.328,129.282c-47.073,103.319-236.727,71.766-237.917-64.496
		c-1.271-20.59,0.976-35.876,1.118-38.372c-6.855,0.145-7.813,1.841-38.413,0.975c-67.916-6.25-108.272-47.167-120.366-101.98
		c-21.023-92.939,52.308-162.825,132.076-145.666c79.831,14.315,84.395,77.209,72.025,103.168
		c-11.529,26.716-48.746,40.198-69.703,25.072c-17.604-12.982-15.307-32.23-7.158-42.625c11.906-16.604,31.72-16.333,37.565-18.188
		c26.949-7.384,34.628-46.271-34.511-59.705c-111.44-17.123-156.737,96.734-108.808,175.981
		c24.108,39.7,68.295,58.516,98.393,57.922c3.221,0.193,6.437-0.168,9.663-0.046c-1.829,0.188-3.821-0.295-5.497,0.569
		c7.128-0.02,14.271,0.269,21.399-0.173c-1.9-0.422-3.851-0.315-5.766-0.401c6.706,0.122,13.479,0.305,20.098-1.041
		c1.128-4.857,1.626-9.841,2.896-14.667c16.254-72.647,69.956-128.101,152.687-140.642c2.322-3.105,3.371-37.032-1.138-67.91
		c-11.177-72.361-54.626-122.963-79.763-140.601c-44.13-35.807-107.48-56.388-148.852-56.301
		C988.997,72.62,771.964,205.724,770.215,209.712c-3.475,8.083-12.935,19.1-19.722,21.439c2.886-3.107,10.375-8.81,14.159-19.407
		c-1.035,0.247-111.177,64.157-111.78,64.562c114.294,71.123,253.831-170.868,454.318-172.521
		c75.248-0.806,147.861,34.767,185.151,102.65c0.706,1.346,1.687,2.682,1.585,4.293c-7.041-8.812-36.148-56.728-103.123-79.666
		C953.599,43.056,785.11,408.821,630.345,290.181c-1.954-2.005-0.276,0.206-58.796,28.989
		c-185.4,90.004-401.841,105.526-490.17-16.334c-39.625-53.109-45.732-145.658,8.159-206.438
		C92.866,92.628,96.387,89.011,100.349,85.907 M640.811,150.809c-15.272,14.642-24.066,35.588-24.66,56.657
		c6.676-1.634,131.097-56.199,132.924-57.566C719.658,120.81,668.236,124.654,640.811,150.809 M724.791,182.354
		c-34.669,18.655-69.155,37.677-104.118,55.783c2.063,5.583,4.765,10.918,8.012,15.907c7.376-2.407,109.18-54.109,138.493-68.682
		c-0.98-7.565-3.754-14.809-7.473-21.434C747.973,169.892,736.41,176.176,724.791,182.354 M1246.826,403.18
		c-27.302,24.854-47.808,61.013-54.93,104.057c83.2-14.08,137.932-72.377,148.694-147.378
		C1306.018,364.701,1272.568,379.414,1246.826,403.18 M1513.553,933.674c-0.544,1-70.481,137.073-67.392,139.697
		c4.588,2.82,9.409,5.411,14.601,6.93c8.012-16.448,73.529-137.876,74.002-138.615
		C1530.567,937.818,1518.618,934.823,1513.553,933.674 M1490.91,1084.918c26.117,1.548,73.556-20.484,77.507-71.746
		c2.911-24.143-5.21-47.194-19.804-61.229C1547.122,954.623,1506.481,1046.966,1490.91,1084.918z"/>
	<path d="M1364.859,61.927c38.771,66.08,23.494,175.936,1.473,245.923c-0.188,0.076-0.559,0.229-0.742,0.31
		c1.375-39.131-13.783-111.929-45.922-135.084C1348.676,134.521,1362.506,68.075,1364.859,61.927z"/>
	<path d="M1626.243,85.201c0,7.632-22.368,63.847-1.077,158.631c8.215,38.995,21.449,66.286,22.303,69.378
		c-134.903-30.959-202.281-5.202-260.84,11.782C1390.054,321.588,1620.786,91.046,1626.243,85.201z"/>
	<path d="M1636.678,336.062c-34.568,8.479-81.711,23.438-110.24,44.454c-0.599,0.559-1.392,0.173-1.732-0.432
		c-31.739-42.25-129.899-44.802-132.457-45.851C1453.587,311.52,1583.342,297.632,1636.678,336.062z"/>
</g>
</svg>
