<?xml version="1.0" encoding="UTF-8" standalone="no"?>
<!-- Created with Inkscape (http://www.inkscape.org/) -->

<svg
   xmlns:dc="http://purl.org/dc/elements/1.1/"
   xmlns:cc="http://creativecommons.org/ns#"
   xmlns:rdf="http://www.w3.org/1999/02/22-rdf-syntax-ns#"
   xmlns:svg="http://www.w3.org/2000/svg"
   xmlns="http://www.w3.org/2000/svg"
   xmlns:sodipodi="http://sodipodi.sourceforge.net/DTD/sodipodi-0.dtd"
   xmlns:inkscape="http://www.inkscape.org/namespaces/inkscape"
   width="626.38538"
   height="621.75659"
   id="svg2"
   inkscape:label="Pozadí"
   version="1.1"
   inkscape:version="0.48.4 r9939"
   sodipodi:docname="crow.svg">
  <title
     id="title3004">Crow</title>
  <defs
     id="defs3365" />
  <sodipodi:namedview
     id="base"
     pagecolor="#ffffff"
     bordercolor="#666666"
     borderopacity="1.0"
     inkscape:pageopacity="0.0"
     inkscape:pageshadow="2"
     inkscape:zoom="0.98994949"
     inkscape:cx="482.90321"
     inkscape:cy="358.93074"
     inkscape:document-units="px"
     inkscape:current-layer="layer1"
     showgrid="false"
     inkscape:window-width="1231"
     inkscape:window-height="1000"
     inkscape:window-x="49"
     inkscape:window-y="24"
     inkscape:window-maximized="1"
     fit-margin-top="20"
     fit-margin-left="20"
     fit-margin-right="20"
     fit-margin-bottom="20" />
  <metadata
     id="metadata3368">
    <rdf:RDF>
      <cc:Work
         rdf:about="">
        <dc:format>image/svg+xml</dc:format>
        <dc:type
           rdf:resource="http://purl.org/dc/dcmitype/StillImage" />
        <dc:title>Crow</dc:title>
        <dc:date>2015/08/11</dc:date>
        <dc:creator>
          <cc:Agent>
            <dc:title>Pavel Vranka</dc:title>
          </cc:Agent>
        </dc:creator>
        <dc:rights>
          <cc:Agent>
            <dc:title>CC</dc:title>
          </cc:Agent>
        </dc:rights>
        <dc:description>Celtic like crow
Vrána ve stylu kelts</dc:description>
      </cc:Work>
    </rdf:RDF>
  </metadata>
  <g
     inkscape:label="Vrstva 1"
     inkscape:groupmode="layer"
     id="layer1"
     transform="translate(-42.132546,2.034024)">
    <g
       id="g3000">
      <path
         sodipodi:nodetypes="caccccccccccccccccsccc"
         inkscape:connector-curvature="0"
         id="path4260"
         d="m 62.802772,536.93928 c -12.731343,38.74632 159.225608,81.79973 234.334358,53.83395 27.80937,-10.35446 49.56927,-45.55839 52.59973,-71.82235 3.03046,-26.26397 1.79623,-110.05587 1.79623,-110.05587 13.92797,-3.82644 23.57022,-7.65289 35.35533,-5.05076 30.26373,67.58861 57.67031,119.46293 97.93404,188.48011 28.15181,-7.2543 54.16075,-13.79431 64.45542,-45.33431 14.81557,-1.68359 32.48829,-4.79576 53.01814,-9.33649 7.90791,-20.83563 9.38725,-28.09984 10.86658,-61.07833 18.92797,-12.38676 32.85593,-20.4878 35.35533,-58.58885 -29.6807,-33.32512 -84.3255,-64.04564 -178.29192,-83.08504 -4.37733,-12.79527 -7.99704,-24.83291 -12.37437,-37.62818 52.07482,2.68382 106.67658,18.96517 140.12893,-15.38253 C 622.63814,262.22847 638.59325,76.5976 589.92908,17.965976 526.29938,69.38223 479.92639,93.35976 365.67522,139.18428 c -15.76505,60.73291 -13.67296,74.32296 -15.15229,105.05587 -11.90699,-23.94505 -29.04901,-32.09307 -56.20088,-31.31473 -70.65121,-13.31641 -105.58813,-10.91854 -122.66791,6.47933 11.43728,19.1112 76.59668,41.09593 99.31185,73.04788 5.9149,8.32012 24.87901,13.6785 34.74258,16.43728 -52.72481,-3.22733 -91.1706,12.82436 -124.8405,22.22336 -29.3551,117.89438 -60.13877,155.07448 -118.065298,205.82601 z"
         style="fill:#000000;stroke:none" />
      <path
         d="m 301.42858,255.93361 c 0,5.12836 -3.83756,9.28571 -8.57143,9.28571 -4.73387,0 -8.57143,-4.15735 -8.57143,-9.28571 0,-5.12836 3.83756,-9.28572 8.57143,-9.28572 4.73387,0 8.57143,4.15736 8.57143,9.28572 z M 644.65252,-6.4951116 C 564.49994,59.663109 464.90378,97.250962 387.48056,131.99491 365.1548,227.09159 372.05974,300.80822 375.76904,323.31114 l 16.55222,3.63013 c -11.85543,-67.343 -4.04294,-137.36834 5.47947,-181.96292 87.31487,-39.22954 169.37196,-66.665044 243.35625,-129.335034 7.41178,29.159869 5.17767,52.405153 -3.82844,71.076014 -10.21396,21.17485 -28.81604,37.33978 -51.26794,49.60339 -44.90374,24.52727 -104.50622,32.46366 -133.49638,34.62251 l 1.16517,15.97961 c 30.19722,-2.24875 91.23094,-9.9879 139.98811,-36.61996 24.37856,-13.31603 45.80706,-31.47014 57.92612,-56.59447 9.08382,-27.011845 17.1866,-51.498205 -6.9911,-100.2055216 z m 19.2986,91.4349976 c -2.67441,7.15242 -6.39569,14.778648 -12.95644,21.159144 7.21043,42.64902 0.86242,63.1204 -9.8377,80.82581 -10.70011,17.70542 -27.83536,26.92625 -49.27048,31.79279 -42.87028,9.73308 -99.95272,-0.44691 -137.99066,5.32653 l 2.33037,15.64671 c 32.48321,-4.93052 91.19861,5.39504 139.15584,-5.49299 23.97858,-5.44399 46.02038,-16.7712 59.42419,-38.95032 13.40381,-22.17912 16.73125,-65.43499 9.14488,-110.307674 z M 650.64153,210.44897 c -1.52238,34.86289 -8.39809,45.45115 -21.46926,61.03468 -11.726,11.5481 -27.48707,15.60362 -46.44075,16.31253 -18.9537,0.70891 -40.45475,-2.19821 -61.42167,-4.16136 -20.9669,-1.96315 -44.9024,-2.41207 -62.78711,3.66876 2.75835,30.46136 33.73667,96.08844 43.10754,128.14877 8.39235,2.38207 7.8252,2.5686 16.78548,6.21024 -7.5992,-19.55994 -33.49842,-90.04077 -40.70006,-121.21588 12.50336,-2.29446 25.52196,-2.38411 42.09607,-0.83227 20.43276,1.91313 42.38982,4.94787 63.4191,4.16136 21.02928,-0.78652 40.02223,-7.68759 57.26031,-20.97325 21.55964,-16.61636 23.83152,-56.65036 25.45738,-93.88281 -5.10234,11.21188 -9.19584,16.37058 -15.30703,21.52923 z m -252.66758,145.04948 -17.33154,-2.53814 c 15.94494,52.20989 78.77525,176.89938 146.34043,293.08616 25.07069,-5.15497 55.0029,-26.32472 61.7275,-46.10785 l -12.62348,-13.7371 c -7.07407,21.81975 -23.66032,30.76992 -40.62838,40.66216 C 485.58928,534.89923 426.6783,443.88949 397.97395,355.49845 z M 164.56271,219.6707 c 41.75932,20.80563 69.47022,38.36482 95.08091,59.96921 10.28577,12.74263 24.61452,22.18424 37.78514,27.96433 13.59274,5.90761 23.13103,5.2728 31.59927,14.42747 l 20.39531,-0.0586 C 337.74816,309.35186 316.773,298.61457 303.75403,292.9563 289.2073,285.51374 277.79998,278.51339 270.2967,267.65523 c -21.03296,-17.78908 -43.57306,-30.70546 -71.24246,-45.10912 29.12589,0.24715 61.15767,6.50684 86.55626,14.31507 18.31962,0.18696 38.49224,3.86035 48.93758,16.81189 8.1504,10.34925 19.83097,30.81734 32.20681,40.00988 l 0.0719,-20.88792 c -5.82467,-4.32644 -9.32553,-15.81582 -19.79453,-29.10922 -10.22014,-12.97736 -27.84007,-23.91152 -57.5932,-22.47133 -23.39608,-7.22567 -48.29249,-11.88031 -69.74438,-13.98217 -14.52542,-2.06585 -57.38823,5.03416 -55.13197,12.43843 z M 331.1987,327.91167 c -82.91505,8.49435 -146.86381,22.37851 -161.59,33.42692 -17.20892,46.33353 -30.61013,93.16159 -49.12092,132.0287 -18.51078,38.86713 -49.222114,72.48131 -88.227565,105.57936 12.527544,29.12142 63.891627,36.74141 100.212275,24.42149 25.15896,-8.16095 41.80386,-27.90637 52.9325,-50.93503 22.25726,-46.05736 24.58676,-107.78199 29.96178,-135.99319 l -15.64671,-2.99619 c -5.96275,31.29603 -8.68375,90.88941 -28.63015,132.16475 -9.9732,20.63768 -23.58358,36.11591 -43.61104,42.61231 -17.72182,5.74852 -41.99486,3.91379 -74.238647,-9.32144 39.180699,-28.19406 63.994807,-61.82029 81.562637,-98.70743 18.79139,-39.45623 35.68526,-94.80019 46.77367,-126.33884 58.83887,-17.03358 108.90041,-26.64143 152.8051,-29.96179 45.64986,-0.37608 92.39273,10.57124 145.11195,27.47355 l -7.8251,-19.79227 C 419.82424,338.07149 380.49925,324.31881 331.1987,327.91167 z m 169.47788,28.5589 6.39998,16.9288 c 91.25396,23.4869 152.14134,59.3598 182.51864,89.17387 -6.29852,17.75704 -16.46513,34.30942 -33.31793,36.46362 l 10.07179,9.92644 c 25.31156,-7.09959 34.96618,-34.46974 38.72639,-54.21341 C 671.7644,419.54584 601.6384,380.88082 500.67658,356.47057 z m -107.55843,49.70812 c -18.52122,4.056 -61.54813,8.38113 -64.06306,21.27269 -0.64622,40.06654 5.81652,93.8542 -2.49681,136.82547 -8.5294,48.86349 -46.62363,73.99537 -87.05564,75.23736 -5.83383,5.32654 -9.14753,7.00285 -19.17181,13.62561 47.69575,3.72906 114.00611,-11.95685 121.87415,-85.8668 8.66303,-44.77904 2.99352,-96.11973 2.99617,-133.82929 15.39439,-5.77663 38.31959,-11.75853 54.64277,-11.75853 z m 31.01595,-3.12294 6.56667,16.02515 c 82.56971,13.02517 183.68168,66.23646 217.61376,105.57981 -1.19736,17.84513 -2.49043,32.38089 -5.99236,49.43694 -13.97103,1.36482 -26.24679,2.96135 -41.28068,6.32527 C 561.9115,541.2891 545.42596,499.09915 527.83666,456.34493 l -17.10484,-8.98433 c 16.79851,42.33803 39.81691,105.68466 81.8205,147.21094 21.77755,-2.7191 46.83685,-4.36307 60.88512,-8.79166 5.53384,-25.63466 10.81238,-49.62913 9.35862,-69.10897 -36.0669,-42.6684 -106.41604,-89.27296 -238.66196,-113.61516 z m -156.33421,25.5608 c -8.82453,44.77638 -7.66469,108.83207 -22.30489,153.80382 -7.3201,22.48588 -18.05937,39.43371 -34.95541,48.27177 -16.89605,8.83806 -43.00701,8.18662 -75.99832,-1.21275 -14.0374,4.71281 -17.50354,3.32466 -33.01554,5.75809 36.64643,11.4283 91.3599,22.16949 113.24654,10.72089 21.88665,-11.4486 38.00885,-33.88494 46.03653,-58.54437 16.05536,-49.3188 14.46172,-114.14874 22.6378,-155.63481 z"
         style="fill:#ffffff;fill-opacity:1;stroke:none"
         transform="matrix(0.83333333,0,0,0.83333333,51.380955,40.203222)"
         id="path4312"
         inkscape:connector-curvature="0" />
    </g>
  </g>
</svg>
