<?xml version="1.0" encoding="UTF-8" standalone="no"?>
<!-- Created with Inkscape (http://www.inkscape.org/) -->

<svg
   xmlns:dc="http://purl.org/dc/elements/1.1/"
   xmlns:cc="http://creativecommons.org/ns#"
   xmlns:rdf="http://www.w3.org/1999/02/22-rdf-syntax-ns#"
   xmlns:svg="http://www.w3.org/2000/svg"
   xmlns="http://www.w3.org/2000/svg"
   xmlns:sodipodi="http://sodipodi.sourceforge.net/DTD/sodipodi-0.dtd"
   xmlns:inkscape="http://www.inkscape.org/namespaces/inkscape"
   id="svg2"
   version="1.1"
   inkscape:version="0.91 r13725"
   width="1080"
   height="1080"
   viewBox="0 0 1080 1080"
   sodipodi:docname="Knotwork Moon.svg"
   inkscape:export-filename="Knotwork Moon.png"
   inkscape:export-xdpi="90"
   inkscape:export-ydpi="90">
  <metadata
     id="metadata8">
    <rdf:RDF>
      <cc:Work
         rdf:about="">
        <dc:format>image/svg+xml</dc:format>
        <dc:type
           rdf:resource="http://purl.org/dc/dcmitype/StillImage" />
        <dc:title />
        <cc:license
           rdf:resource="http://artlibre.org/licence/lal" />
      </cc:Work>
      <cc:License
         rdf:about="http://artlibre.org/licence/lal">
        <cc:permits
           rdf:resource="http://creativecommons.org/ns#Reproduction" />
        <cc:permits
           rdf:resource="http://creativecommons.org/ns#Distribution" />
        <cc:permits
           rdf:resource="http://creativecommons.org/ns#DerivativeWorks" />
        <cc:requires
           rdf:resource="http://creativecommons.org/ns#ShareAlike" />
        <cc:requires
           rdf:resource="http://creativecommons.org/ns#Notice" />
        <cc:requires
           rdf:resource="http://creativecommons.org/ns#Attribution" />
      </cc:License>
    </rdf:RDF>
  </metadata>
  <defs
     id="defs6" />
  <sodipodi:namedview
     pagecolor="#ffffff"
     bordercolor="#666666"
     borderopacity="1"
     objecttolerance="10"
     gridtolerance="10"
     guidetolerance="10"
     inkscape:pageopacity="0"
     inkscape:pageshadow="2"
     inkscape:window-width="1366"
     inkscape:window-height="715"
     id="namedview4"
     showgrid="false"
     inkscape:zoom="0.52685185"
     inkscape:cx="216.37961"
     inkscape:cy="540"
     inkscape:window-x="-8"
     inkscape:window-y="-8"
     inkscape:window-maximized="1"
     inkscape:current-layer="svg2" />
  <path
     style=""
     d="m 683.91554,1051.8586 c -52.31204,-2.8312 -103.34915,-12.9099 -160.60835,-31.7165 -43.32044,-14.2283 -89.34991,-33.99564 -124.15334,-53.31724 -11.6948,-6.4924 -23.0476,-13.2907 -21.14717,-12.663 5.24312,1.7312 13.09468,2.6528 19.73999,2.3172 18.01587,-0.9103 34.38169,-10.6995 48.30601,-28.8938 4.38432,-5.7288 15.00588,-22.929 15.00588,-24.3001 0,-0.4546 -2.06704,-2.4506 -4.59344,-4.4359 -11.01892,-8.6581 -51.37662,-50.2507 -49.98672,-51.516 1.02051,-0.9292 18.71423,-15.0068 19.37356,-15.4142 0.34708,-0.2146 3.99982,3.5471 8.11724,8.3591 20.94979,24.484 49.93869,52.2444 63.20045,60.5227 1.51322,0.9444 2.89017,1.8403 3.05983,1.9905 0.16967,0.1513 -2.49405,3.1262 -5.91942,6.613 -13.62066,13.8647 -38.69404,44.7153 -38.74192,47.6682 -0.0115,0.7755 9.29605,7.511 17.18354,12.4335 50.97169,31.81124 133.04184,54.79934 212.19561,59.43674 20.26004,1.1871 62.39892,0.4404 78.41263,-1.3892 33.90913,-3.8742 57.4918,-8.9955 83.74332,-18.186 4.4451,-1.5561 8.08083,-3.142 8.07932,-3.5239 0,-0.3819 -4.87644,-3.1459 -10.83332,-6.14224 -5.95682,-2.9964 -16.40207,-8.526 -23.21159,-12.2882 -77.77095,-42.9673 -137.90602,-89.1497 -195.02439,-149.7751 -23.51159,-24.9551 -49.42596,-56.3602 -69.00587,-83.6267 -3.30489,-4.6024 -6.38098,-8.6764 -6.83577,-9.0536 -0.5922,-0.491 -2.58372,0.8686 -7.01733,4.791 -9.31866,8.244 -18.89126,15.2381 -32.46506,23.7199 -15.75355,9.844 -32.14418,19.5147 -33.07486,19.5147 -0.40011,0 -4.29947,-4.3153 -8.66524,-9.5895 l -7.93779,-9.5894 7.36781,-4.6092 c 25.47925,-15.9397 37.19542,-23.7497 45.5109,-30.3375 15.90609,-12.6013 21.19374,-19.859 30.5973,-41.9973 5.35054,-12.5965 7.23368,-16.3091 7.8843,-15.5438 0.27939,0.3288 1.8232,4.3114 3.43064,8.8505 3.37073,9.5181 12.42217,28.368 18.65863,38.8569 34.82294,58.5681 97.218,123.857 171.33314,179.2796 26.19236,19.5864 48.27852,34.0745 80.74623,52.9676 13.15778,7.6568 41.54914,21.7127 58.46556,28.9451 9.41254,4.0244 27.68723,10.97124 35.61447,13.53834 2.18592,0.7079 3.73354,1.4933 3.43915,1.7455 -0.29432,0.2519 -3.01132,1.424 -6.03777,2.6047 -61.64581,24.0456 -121.36343,38.202 -179.17975,42.4748 -13.24582,0.9792 -46.34984,1.7483 -55.02641,1.2788 z m -23.38622,-67.48464 c -3.83747,-1.408 -20.30415,-9.3295 -27.16929,-13.0704 -22.2359,-12.1158 -46.27758,-28.302 -68.09518,-45.8452 -46.36612,-37.2825 -99.39008,-92.0202 -147.9869,-152.7702 -17.90697,-22.3852 -40.59285,-52.2398 -52.89444,-69.6091 -3.00723,-4.246 -5.80535,-7.7277 -6.21805,-7.737 -2.20874,-0.049 -3.23931,15.2069 -1.68378,24.9262 3.05309,19.0763 18.31306,47.8037 40.04586,75.3876 2.2011,2.7936 4.00197,5.2907 4.00197,5.5489 0,0.2583 -3.79166,2.5844 -8.42591,5.1692 -4.63426,2.5848 -9.71941,5.4428 -11.30037,6.3511 l -2.87444,1.6516 -2.79025,-3.7765 c -12.60355,-17.0584 -28.28314,-43.5567 -35.65491,-60.2562 -18.91106,-42.84 -18.17488,-76.75708 2.3394,-107.77919 2.05517,-3.10789 4.00863,-5.81875 4.34099,-6.02413 0.33236,-0.20541 4.70512,5.2775 9.71723,12.18418 77.11582,106.26534 122.24554,162.51664 171.74065,214.06354 10.50849,10.9442 26.98271,26.8329 33.15802,31.9797 l 3.71328,3.0948 -4.99007,-7.4376 c -9.15759,-13.6493 -17.21089,-28.3069 -38.6116,-70.2764 -5.78626,-11.3476 -11.55628,-22.6129 -12.82225,-25.0339 -1.26595,-2.4211 -2.29378,-4.7422 -2.28404,-5.1581 0.009,-0.4158 2.87284,-2.6731 6.36243,-5.0163 3.48959,-2.3431 8.9105,-6.0292 12.04645,-8.1912 3.22785,-2.2255 5.93761,-3.6593 6.24536,-3.3048 0.299,0.3444 2.95708,5.8873 5.90686,12.3177 29.46155,64.224 52.57221,107.443 75.2059,140.6415 13.00682,19.078 29.05044,38.5768 40.03529,48.6572 2.8373,2.6037 6.39682,5.8654 7.91005,7.2484 2.78578,2.546 2.88496,2.7446 1.03174,2.0646 z m -322.93626,-58.4787 c -15.86579,-13.5582 -35.91998,-34.799 -47.89375,-50.7276 -19.91894,-26.4983 -35.97734,-58.0288 -44.13304,-86.6545 -3.55369,-12.4732 -4.01793,-14.3402 -6.00562,-24.1528 -6.80952,-33.6161 -6.90039,-70.101 -0.26276,-105.485 6.67787,-35.59854 20.5996,-72.24924 39.99836,-105.30082 l 4.68749,-7.98652 11.62632,11.36757 11.62635,11.36758 -1.56364,2.80854 c -10.24826,18.40726 -15.27066,28.60997 -21.01812,42.6971 -10.39616,25.48115 -17.37209,53.54033 -19.61806,78.90945 -0.89246,10.0808 -0.88877,35.9332 0.007,45.5703 4.33748,46.6903 22.64513,89.6786 51.45411,120.8195 l 3.666,3.9627 6.30754,-4.8927 c 19.32638,-14.991 44.15874,-32.0583 63.0538,-43.3367 12.86495,-7.6791 33.08633,-19.127 33.78548,-19.127 0.62132,0 17.1156,17.8092 17.11081,18.4749 -0.002,0.2408 -2.86481,1.8962 -6.36243,3.6788 -11.49527,5.8586 -28.78663,15.7135 -38.79174,22.1088 -34.19176,21.8551 -53.69257,42.0965 -58.73033,60.9608 -2.20715,8.2649 -0.30679,18.5727 4.84982,26.3058 1.45032,2.1748 2.5831,3.9471 2.51732,3.9382 -0.0658,0 -2.90534,-2.397 -6.3101,-5.3064 z M 198.13807,742.02606 c -20.83295,-37.7192 -35.57735,-93.09604 -40.72532,-152.95567 -2.06234,-23.98083 -2.42485,-32.55818 -2.41245,-57.08191 0.0289,-57.03843 6.70983,-103.96644 20.95679,-147.20384 8.58382,-26.05059 18.16089,-45.23852 31.03714,-62.18364 5.93797,-7.81435 10.86707,-13.30737 10.20726,-11.37502 -0.90594,2.65319 -3.70837,17.2515 -4.41931,23.02104 -0.91832,7.45248 -0.91585,33.6541 0.005,44.37686 3.33102,38.82162 11.73839,74.81409 27.78597,118.9535 3.33944,9.18528 11.10539,25.07246 15.05908,30.80719 1.76279,2.55688 3.20508,5.12502 3.20508,5.70695 0,0.58194 -1.87798,4.21533 -4.17332,8.0742 -14.64303,24.61775 -27.79709,59.08781 -38.76351,101.5795 -9.19922,35.64434 -12.8176,60.89904 -14.33683,100.06524 l -0.16004,4.1264 -3.26462,-5.9108 z m -5.84181,-107.5737 c 2.76061,-17.75559 6.37316,-30.34648 13.31213,-46.39688 6.77966,-15.68197 16.57918,-32.10799 26.35962,-44.18418 2.67185,-3.29903 4.85794,-6.31346 4.85794,-6.69871 0,-0.38527 -1.41904,-2.77292 -3.15345,-5.30591 -4.57857,-6.68676 -9.26494,-16.39162 -15.50493,-32.10877 -12.33972,-31.08091 -18.0214,-52.69532 -19.78316,-75.2594 -0.57175,-7.32292 -0.86711,-8.12065 -3.14988,-8.50761 -1.73287,-0.29373 -3.65265,4.82528 -6.87784,18.3394 -11.14285,46.69045 -12.21712,117.28997 -2.8871,189.73278 1.31057,10.17589 1.81067,12.46334 2.89861,13.25875 2.24902,1.6443 3.35148,0.83895 3.92806,-2.86947 z m 295.24425,106.7791 c -1.0345,-2.9617 -11.14145,-34.3541 -14.0048,-43.4992 -26.11824,-83.41702 -33.07759,-141.10597 -25.074,-207.84867 l 1.17296,-9.7814 2.78867,-0.98 c 19.41678,-6.82342 35.0471,-12.07949 35.26716,-11.85946 0.15063,0.15061 -0.79768,3.51007 -2.10749,7.46534 -3.32885,10.05231 -6.3155,23.64981 -8.12084,36.97227 -1.31601,9.71144 -1.53698,14.42163 -1.53265,32.66737 0.005,22.27225 0.95744,34.57306 4.40541,56.91459 3.2785,21.24331 11.46528,58.23918 16.47335,74.44253 0.70145,2.26952 2.25962,7.53073 3.46258,11.69143 1.20295,4.1608 4.34627,14.169 6.98513,22.2405 4.09625,12.5292 4.65243,14.7922 3.80308,15.474 -0.54717,0.4392 -4.05089,3.2986 -7.78603,6.3541 -7.27089,5.948 -13.7711,10.6063 -14.80004,10.6063 -0.34772,0 -0.76735,-0.3869 -0.93249,-0.8597 z m 48.49154,-92.29316 c -4.35053,-1.25422 -12.08862,-3.43413 -17.19576,-4.84424 -5.10713,-1.41008 -11.75192,-3.26614 -14.76617,-4.12459 l -5.48047,-1.56081 -0.87556,-5.06874 c -0.48155,-2.78779 -1.65708,-9.55617 -2.61225,-15.04085 -2.83626,-16.2858 -2.76881,-14.55223 -0.54684,-14.0561 1.05976,0.23665 4.78518,1.23129 8.27872,2.21033 3.49353,0.97903 6.46966,1.64639 6.6136,1.48298 0.14399,-0.16345 -0.13298,-2.94329 -0.61517,-6.17754 -1.91483,-12.84086 -2.58056,-34.72429 -2.14342,-70.45799 0.236,-19.29093 0.72711,-39.40714 1.09138,-44.70269 1.04695,-15.21934 2.13663,-26.56692 2.86509,-29.83572 0.36943,-1.65778 0.51113,-3.17472 0.31484,-3.37095 -0.50617,-0.5061 -18.44616,4.1593 -33.04964,8.59475 -49.33298,14.98372 -91.10071,35.41617 -125.42075,61.35489 -4.29103,3.24308 -8.34831,6.29198 -9.01624,6.77532 -1.04215,0.75417 -1.59409,0.56365 -3.89128,-1.34314 -4.82561,-4.0055 -17.63147,-19.40924 -16.68486,-20.06963 0.13825,-0.0965 6.59659,-3.7633 14.35187,-8.14856 63.06268,-35.65917 102.11029,-53.31522 142.72475,-64.53541 19.11742,-5.28141 46.93313,-9.59824 61.84664,-9.59824 l 3.65004,0 -1.64525,6.7054 c -2.93476,11.96092 -5.32626,30.48297 -7.2592,56.22222 -1.42584,18.98698 -1.18604,91.69636 0.3652,110.72514 1.50368,18.44532 4.17334,37.64762 6.3173,45.43916 0.87733,3.18833 1.39226,5.77639 1.1443,5.75122 -0.24794,-0.0252 -4.01032,-1.07197 -8.36087,-2.32621 z M 431.72504,623.78164 C 370.65499,607.86052 321.73346,575.80559 286.90917,528.89368 258.77158,490.98947 242.2424,446.30177 237.55933,395.47335 c -0.92499,-10.03974 -0.94528,-35.85439 -0.036,-45.73428 6.25811,-67.99272 33.65443,-127.90808 80.22167,-175.44374 7.66479,-7.82419 17.92348,-17.21512 24.46334,-22.39406 l 2.88527,-2.28485 -1.90795,3.09088 c -3.10684,5.03308 -7.28321,13.82702 -8.43154,17.75382 -0.74251,2.53916 -0.99815,5.70897 -0.83516,10.35575 0.21346,6.0878 0.46529,7.16231 2.76941,11.81999 4.69616,9.49315 13.63197,17.49145 32.2009,28.8225 5.10714,3.11645 12.30696,7.67282 15.9996,10.12526 l 6.71386,4.45896 -3.27471,3.89519 c -9.982,11.87331 -13.56371,15.92465 -14.07865,15.92465 -0.31548,0 -7.45413,-5.19023 -15.86365,-11.53386 -23.45201,-17.69074 -29.84046,-22.07456 -35.79209,-24.56097 l -2.42962,-1.01502 -5.10691,6.34767 c -23.63453,29.37661 -38.56489,64.25197 -44.52558,104.00582 -11.4978,76.68282 14.22228,157.92248 66.37368,209.6486 26.52871,26.31239 58.381,44.40192 92.31487,52.42741 10.03349,2.37298 9.8279,2.29751 9.82797,3.60746 9e-5,1.21515 5.27666,28.47916 5.91405,30.55781 0.54132,1.76532 -1.28544,1.54912 -13.23708,-1.5667 z M 345.60252,443.09891 c -7.97067,-25.09183 -10.83238,-40.38863 -11.54725,-61.7241 -1.59521,-47.60923 16.42048,-89.90533 58.87987,-138.23446 12.95555,-14.74657 43.2995,-44.82811 64.3114,-63.75527 l 2.72236,-2.45225 -3.78214,-4.72159 c -2.08021,-2.59686 -6.78066,-8.47263 -10.44548,-13.05726 -14.19957,-17.76343 -28.38237,-28.20944 -42.92881,-31.61815 -7.00236,-1.64086 -19.45122,-1.03783 -26.70092,1.29342 -6.31105,2.02944 -6.13632,1.85941 5.37234,-5.22771 61.99596,-38.177607 131.67434,-67.092697 197.33135,-81.888417 43.47059,-9.79606 78.36446,-13.69775 122.63997,-13.71311 51.11541,-0.0183 96.31995,6.20938 145.47607,20.03989 21.34021,6.00426 52.15362,16.93874 68.93213,24.46133 2.16275,0.96964 5.10322,2.26088 6.53439,2.86941 l 2.6022,1.10643 -11.3492,3.9892 C 838.3182,106.94546 754.26468,159.96944 680.47639,227.5611 c -4.72883,4.33171 -16.1812,15.49184 -25.44971,24.80027 -50.59284,50.81079 -84.95142,99.37735 -99.75137,141.00057 l -2.5505,7.17299 -2.22974,-9.23619 c -6.00345,-24.86806 -12.89156,-38.20379 -23.42809,-45.358 -2.25702,-1.53253 -4.10371,-2.90621 -4.10371,-3.05267 0,-1.49213 9.39194,-22.37768 10.06291,-22.37768 0.15889,0 2.37045,1.03921 4.91457,2.30938 5.11578,2.55404 13.39884,5.94342 14.5247,5.94342 0.39743,0 5.12677,-5.48179 10.50961,-12.18176 49.06634,-61.07219 101.3312,-112.88017 157.05157,-155.67875 38.58272,-29.63527 82.50501,-57.39401 126.84859,-80.167917 4.31971,-2.21852 7.95889,-4.34806 8.08696,-4.73234 0.41552,-1.24629 -37.31396,-11.4755 -58.38357,-15.82897 -22.27572,-4.60266 -45.02515,-7.88102 -64.85887,-9.3466 -14.57822,-1.07724 -49.45375,-1.07637 -63.62429,10e-4 -67.20779,5.1125 -138.2055,25.95814 -217.30541,63.803067 -5.83686,2.79261 -10.75438,5.21937 -10.92783,5.39282 -0.645,0.64491 7.90592,10.29244 15.96554,18.01303 4.57935,4.38668 16.45104,15.27752 26.38159,24.20185 9.93055,8.92433 18.05554,16.42959 18.05554,16.67834 0,0.24878 -3.17262,3.03855 -7.05026,6.19953 -19.47955,15.87933 -50.86742,46.28473 -67.61111,65.49485 -34.0793,39.09937 -55.2729,73.36112 -63.01966,101.87808 -1.6783,6.1781 -2.12509,9.41265 -2.437,17.64241 -0.38443,10.14297 -0.0403,13.94041 1.22447,13.51883 0.37687,-0.12563 4.77616,-6.01937 9.77622,-13.09722 19.29836,-27.31798 54.98434,-74.79665 56.59102,-75.29196 0.65484,-0.20196 17.20071,9.80898 21.84395,13.21638 l 1.87897,1.37886 -9.73472,12.03197 C 407.04473,364.75527 380.14778,399.51548 358.8457,429 c -6.62708,9.17264 -12.13355,16.67754 -12.23659,16.67754 -0.10317,0 -0.55602,-1.16055 -1.00659,-2.579 z M 457.95361,430.7197 c 1.91709,-15.38685 10.93881,-46.45691 22.70286,-78.18679 21.15967,-57.07162 49.01494,-115.96819 74.1181,-156.71377 4.14986,-6.73575 7.38528,-12.40671 7.18982,-12.60217 -1.76163,-1.76137 -45.07294,44.90046 -78.15179,84.19765 -5.82544,6.92053 -10.92941,12.45197 -11.34218,12.29209 -0.41276,-0.15978 -5.28235,-3.21832 -10.82128,-6.79655 l -10.07082,-6.50584 10.30115,-12.31972 c 70.08924,-83.82361 130.94082,-134.94895 181.79801,-152.74032 5.27538,-1.845487 19.75208,-5.803167 20.06875,-5.486467 0.10914,0.10889 -2.98009,3.8915 -6.86459,8.405617 -24.17606,28.09465 -50.73132,64.69437 -72.81988,100.36384 -43.90392,70.89777 -76.86887,147.63896 -89.66084,208.72716 -0.99008,4.72817 -2.16501,8.96378 -2.61095,9.41248 -0.44592,0.44868 -5.76317,2.27424 -11.81608,4.05683 -6.0529,1.78256 -13.47207,4.27816 -16.48703,5.54574 -3.01497,1.26759 -5.60419,2.30469 -5.75384,2.30469 -0.14972,0 -0.0504,-1.77951 0.22056,-3.95447 z m 2.6743,-122.47647 c -12.91013,-7.81581 -29.46964,-17.73809 -36.79891,-22.04949 -7.32926,-4.3114 -13.44763,-7.94051 -13.59636,-8.06469 -0.62207,-0.51942 13.96559,-18.71461 15.4655,-19.29008 1.01221,-0.38838 42.69132,24.27198 65.41234,38.70265 l 3.57046,2.26766 -4.37937,10.6778 c -4.72649,11.52415 -5.00869,12.11695 -5.72541,12.02663 -0.26139,-0.033 -11.03811,-6.45466 -23.94825,-14.27048 z"
     id="path4138"
     inkscape:connector-curvature="0" />
</svg>
